<svg xmlns="http://www.w3.org/2000/svg" viewBox="0 0 400 160">
<g fill="currentColor">
<path d="M120,160 Q115,130 110,100 Q105,70 120,45 Q135,20 160,10" stroke="currentColor" stroke-width="9" fill="none" stroke-linecap="round"/>
<path d="M120,100 Q140,85 165,80 Q185,75 205,80" stroke="currentColor" stroke-width="5" fill="none" stroke-linecap="round"/>
<path d="M115,65 Q100,55 85,50 Q70,46 55,50" stroke="currentColor" stroke-width="4" fill="none" stroke-linecap="round"/>
<path d="M130,50 Q145,42 160,38" stroke="currentColor" stroke-width="3" fill="none" stroke-linecap="round"/>
<circle cx="160.0" cy="-6.0" r="6.3"/>
<circle cx="173.3" cy="3.7" r="6.3"/>
<circle cx="168.2" cy="19.3" r="6.3"/>
<circle cx="151.8" cy="19.3" r="6.3"/>
<circle cx="146.7" cy="3.7" r="6.3"/>
<circle cx="160.0" cy="8.0" r="4.2"/>
<circle cx="55.0" cy="32.0" r="5.4"/>
<circle cx="66.4" cy="40.3" r="5.4"/>
<circle cx="62.1" cy="53.7" r="5.4"/>
<circle cx="47.9" cy="53.7" r="5.4"/>
<circle cx="43.6" cy="40.3" r="5.4"/>
<circle cx="55.0" cy="44.0" r="3.6"/>
<circle cx="205.0" cy="62.0" r="5.9"/>
<circle cx="217.4" cy="71.0" r="5.9"/>
<circle cx="212.6" cy="85.5" r="5.9"/>
<circle cx="197.4" cy="85.5" r="5.9"/>
<circle cx="192.6" cy="71.0" r="5.9"/>
<circle cx="205.0" cy="75.0" r="3.9"/>
<circle cx="165.0" cy="65.0" r="5.0"/>
<circle cx="175.5" cy="72.6" r="5.0"/>
<circle cx="171.5" cy="84.9" r="5.0"/>
<circle cx="158.5" cy="84.9" r="5.0"/>
<circle cx="154.5" cy="72.6" r="5.0"/>
<circle cx="165.0" cy="76.0" r="3.3"/>
<circle cx="140.0" cy="26.0" r="4.5"/>
<circle cx="149.5" cy="32.9" r="4.5"/>
<circle cx="145.9" cy="44.1" r="4.5"/>
<circle cx="134.1" cy="44.1" r="4.5"/>
<circle cx="130.5" cy="32.9" r="4.5"/>
<circle cx="140.0" cy="36.0" r="3.0"/>
<circle cx="90.0" cy="33.0" r="4.0"/>
<circle cx="98.6" cy="39.2" r="4.0"/>
<circle cx="95.3" cy="49.3" r="4.0"/>
<circle cx="84.7" cy="49.3" r="4.0"/>
<circle cx="81.4" cy="39.2" r="4.0"/>
<circle cx="90.0" cy="42.0" r="2.7"/>
<ellipse cx="240.0" cy="50.0" rx="5.0" ry="2.8" transform="rotate(20,240.0,50.0)"/>
<ellipse cx="260.0" cy="30.0" rx="4.0" ry="2.2" transform="rotate(-15,260.0,30.0)"/>
<ellipse cx="280.0" cy="65.0" rx="4.0" ry="2.2" transform="rotate(35,280.0,65.0)"/>
<ellipse cx="300.0" cy="45.0" rx="3.0" ry="1.7" transform="rotate(10,300.0,45.0)"/>

</g>
</svg>
