<svg xmlns="http://www.w3.org/2000/svg" viewBox="0 0 400 160" width="400" height="160">
<g fill="currentColor">
<circle cx="110.0" cy="28.0" r="18.0"/>
<path d="M85,46 Q72,70 68,100 Q65,125 70,155 L155,155 Q158,125 152,100 Q148,70 135,46 Z"/>
<path d="M85,46 Q65,52 45,65 Q35,72 30,82 Q40,82 50,78 Q62,74 75,68 Z"/>
<path d="M135,46 Q155,52 175,65 Q185,72 190,82 Q180,82 170,78 Q158,74 145,68 Z"/>
<rect x="72.0" y="95.0" width="76.0" height="18.0" rx="2.0"/>
<line x1="260.0" y1="35.0" x2="282.0" y2="35.0" stroke="currentColor" stroke-width="2.5" stroke-linecap="round"/>
<line x1="273.2" y1="35.0" x2="270.8" y2="39.2" stroke="currentColor" stroke-width="1.5" stroke-linecap="round"/>
<line x1="273.2" y1="35.0" x2="275.6" y2="39.2" stroke="currentColor" stroke-width="1.5" stroke-linecap="round"/>
<line x1="260.0" y1="35.0" x2="271.0" y2="54.1" stroke="currentColor" stroke-width="2.5" stroke-linecap="round"/>
<line x1="266.6" y1="46.4" x2="261.8" y2="46.4" stroke="currentColor" stroke-width="1.5" stroke-linecap="round"/>
<line x1="266.6" y1="46.4" x2="264.2" y2="50.6" stroke="currentColor" stroke-width="1.5" stroke-linecap="round"/>
<line x1="260.0" y1="35.0" x2="249.0" y2="54.1" stroke="currentColor" stroke-width="2.5" stroke-linecap="round"/>
<line x1="253.4" y1="46.4" x2="251.0" y2="42.2" stroke="currentColor" stroke-width="1.5" stroke-linecap="round"/>
<line x1="253.4" y1="46.4" x2="248.6" y2="46.4" stroke="currentColor" stroke-width="1.5" stroke-linecap="round"/>
<line x1="260.0" y1="35.0" x2="238.0" y2="35.0" stroke="currentColor" stroke-width="2.5" stroke-linecap="round"/>
<line x1="246.8" y1="35.0" x2="249.2" y2="30.8" stroke="currentColor" stroke-width="1.5" stroke-linecap="round"/>
<line x1="246.8" y1="35.0" x2="244.4" y2="30.8" stroke="currentColor" stroke-width="1.5" stroke-linecap="round"/>
<line x1="260.0" y1="35.0" x2="249.0" y2="15.9" stroke="currentColor" stroke-width="2.5" stroke-linecap="round"/>
<line x1="253.4" y1="23.6" x2="258.2" y2="23.6" stroke="currentColor" stroke-width="1.5" stroke-linecap="round"/>
<line x1="253.4" y1="23.6" x2="255.8" y2="19.4" stroke="currentColor" stroke-width="1.5" stroke-linecap="round"/>
<line x1="260.0" y1="35.0" x2="271.0" y2="15.9" stroke="currentColor" stroke-width="2.5" stroke-linecap="round"/>
<line x1="266.6" y1="23.6" x2="269.0" y2="27.8" stroke="currentColor" stroke-width="1.5" stroke-linecap="round"/>
<line x1="266.6" y1="23.6" x2="271.4" y2="23.6" stroke="currentColor" stroke-width="1.5" stroke-linecap="round"/>
<circle cx="260.0" cy="35.0" r="2.6"/>
<line x1="315.0" y1="75.0" x2="331.0" y2="75.0" stroke="currentColor" stroke-width="2.5" stroke-linecap="round"/>
<line x1="324.6" y1="75.0" x2="322.8" y2="78.0" stroke="currentColor" stroke-width="1.5" stroke-linecap="round"/>
<line x1="324.6" y1="75.0" x2="326.4" y2="78.0" stroke="currentColor" stroke-width="1.5" stroke-linecap="round"/>
<line x1="315.0" y1="75.0" x2="323.0" y2="88.9" stroke="currentColor" stroke-width="2.5" stroke-linecap="round"/>
<line x1="319.8" y1="83.3" x2="316.3" y2="83.3" stroke="currentColor" stroke-width="1.5" stroke-linecap="round"/>
<line x1="319.8" y1="83.3" x2="318.0" y2="86.4" stroke="currentColor" stroke-width="1.5" stroke-linecap="round"/>
<line x1="315.0" y1="75.0" x2="307.0" y2="88.9" stroke="currentColor" stroke-width="2.5" stroke-linecap="round"/>
<line x1="310.2" y1="83.3" x2="308.4" y2="80.3" stroke="currentColor" stroke-width="1.5" stroke-linecap="round"/>
<line x1="310.2" y1="83.3" x2="306.7" y2="83.3" stroke="currentColor" stroke-width="1.5" stroke-linecap="round"/>
<line x1="315.0" y1="75.0" x2="299.0" y2="75.0" stroke="currentColor" stroke-width="2.5" stroke-linecap="round"/>
<line x1="305.4" y1="75.0" x2="307.2" y2="72.0" stroke="currentColor" stroke-width="1.5" stroke-linecap="round"/>
<line x1="305.4" y1="75.0" x2="303.6" y2="72.0" stroke="currentColor" stroke-width="1.5" stroke-linecap="round"/>
<line x1="315.0" y1="75.0" x2="307.0" y2="61.1" stroke="currentColor" stroke-width="2.5" stroke-linecap="round"/>
<line x1="310.2" y1="66.7" x2="313.7" y2="66.7" stroke="currentColor" stroke-width="1.5" stroke-linecap="round"/>
<line x1="310.2" y1="66.7" x2="312.0" y2="63.6" stroke="currentColor" stroke-width="1.5" stroke-linecap="round"/>
<line x1="315.0" y1="75.0" x2="323.0" y2="61.1" stroke="currentColor" stroke-width="2.5" stroke-linecap="round"/>
<line x1="319.8" y1="66.7" x2="321.6" y2="69.7" stroke="currentColor" stroke-width="1.5" stroke-linecap="round"/>
<line x1="319.8" y1="66.7" x2="323.3" y2="66.7" stroke="currentColor" stroke-width="1.5" stroke-linecap="round"/>
<circle cx="315.0" cy="75.0" r="1.9"/>
<line x1="340.0" y1="25.0" x2="352.0" y2="25.0" stroke="currentColor" stroke-width="2.5" stroke-linecap="round"/>
<line x1="347.2" y1="25.0" x2="345.9" y2="27.3" stroke="currentColor" stroke-width="1.5" stroke-linecap="round"/>
<line x1="347.2" y1="25.0" x2="348.5" y2="27.3" stroke="currentColor" stroke-width="1.5" stroke-linecap="round"/>
<line x1="340.0" y1="25.0" x2="346.0" y2="35.4" stroke="currentColor" stroke-width="2.5" stroke-linecap="round"/>
<line x1="343.6" y1="31.2" x2="341.0" y2="31.2" stroke="currentColor" stroke-width="1.5" stroke-linecap="round"/>
<line x1="343.6" y1="31.2" x2="342.3" y2="33.5" stroke="currentColor" stroke-width="1.5" stroke-linecap="round"/>
<line x1="340.0" y1="25.0" x2="334.0" y2="35.4" stroke="currentColor" stroke-width="2.5" stroke-linecap="round"/>
<line x1="336.4" y1="31.2" x2="335.1" y2="28.9" stroke="currentColor" stroke-width="1.5" stroke-linecap="round"/>
<line x1="336.4" y1="31.2" x2="333.8" y2="31.2" stroke="currentColor" stroke-width="1.5" stroke-linecap="round"/>
<line x1="340.0" y1="25.0" x2="328.0" y2="25.0" stroke="currentColor" stroke-width="2.5" stroke-linecap="round"/>
<line x1="332.8" y1="25.0" x2="334.1" y2="22.7" stroke="currentColor" stroke-width="1.5" stroke-linecap="round"/>
<line x1="332.8" y1="25.0" x2="331.5" y2="22.7" stroke="currentColor" stroke-width="1.5" stroke-linecap="round"/>
<line x1="340.0" y1="25.0" x2="334.0" y2="14.6" stroke="currentColor" stroke-width="2.5" stroke-linecap="round"/>
<line x1="336.4" y1="18.8" x2="339.0" y2="18.8" stroke="currentColor" stroke-width="1.5" stroke-linecap="round"/>
<line x1="336.4" y1="18.8" x2="337.7" y2="16.5" stroke="currentColor" stroke-width="1.5" stroke-linecap="round"/>
<line x1="340.0" y1="25.0" x2="346.0" y2="14.6" stroke="currentColor" stroke-width="2.5" stroke-linecap="round"/>
<line x1="343.6" y1="18.8" x2="344.9" y2="21.1" stroke="currentColor" stroke-width="1.5" stroke-linecap="round"/>
<line x1="343.6" y1="18.8" x2="346.2" y2="18.8" stroke="currentColor" stroke-width="1.5" stroke-linecap="round"/>
<circle cx="340.0" cy="25.0" r="1.4"/>
<line x1="230.0" y1="80.0" x2="240.0" y2="80.0" stroke="currentColor" stroke-width="2.5" stroke-linecap="round"/>
<line x1="236.0" y1="80.0" x2="234.9" y2="81.9" stroke="currentColor" stroke-width="1.5" stroke-linecap="round"/>
<line x1="236.0" y1="80.0" x2="237.1" y2="81.9" stroke="currentColor" stroke-width="1.5" stroke-linecap="round"/>
<line x1="230.0" y1="80.0" x2="235.0" y2="88.7" stroke="currentColor" stroke-width="2.5" stroke-linecap="round"/>
<line x1="233.0" y1="85.2" x2="230.8" y2="85.2" stroke="currentColor" stroke-width="1.5" stroke-linecap="round"/>
<line x1="233.0" y1="85.2" x2="231.9" y2="87.1" stroke="currentColor" stroke-width="1.5" stroke-linecap="round"/>
<line x1="230.0" y1="80.0" x2="225.0" y2="88.7" stroke="currentColor" stroke-width="2.5" stroke-linecap="round"/>
<line x1="227.0" y1="85.2" x2="225.9" y2="83.3" stroke="currentColor" stroke-width="1.5" stroke-linecap="round"/>
<line x1="227.0" y1="85.2" x2="224.8" y2="85.2" stroke="currentColor" stroke-width="1.5" stroke-linecap="round"/>
<line x1="230.0" y1="80.0" x2="220.0" y2="80.0" stroke="currentColor" stroke-width="2.5" stroke-linecap="round"/>
<line x1="224.0" y1="80.0" x2="225.1" y2="78.1" stroke="currentColor" stroke-width="1.5" stroke-linecap="round"/>
<line x1="224.0" y1="80.0" x2="222.9" y2="78.1" stroke="currentColor" stroke-width="1.5" stroke-linecap="round"/>
<line x1="230.0" y1="80.0" x2="225.0" y2="71.3" stroke="currentColor" stroke-width="2.5" stroke-linecap="round"/>
<line x1="227.0" y1="74.8" x2="229.2" y2="74.8" stroke="currentColor" stroke-width="1.5" stroke-linecap="round"/>
<line x1="227.0" y1="74.8" x2="228.1" y2="72.9" stroke="currentColor" stroke-width="1.5" stroke-linecap="round"/>
<line x1="230.0" y1="80.0" x2="235.0" y2="71.3" stroke="currentColor" stroke-width="2.5" stroke-linecap="round"/>
<line x1="233.0" y1="74.8" x2="234.1" y2="76.7" stroke="currentColor" stroke-width="1.5" stroke-linecap="round"/>
<line x1="233.0" y1="74.8" x2="235.2" y2="74.8" stroke="currentColor" stroke-width="1.5" stroke-linecap="round"/>
<circle cx="230.0" cy="80.0" r="1.2"/>
<circle cx="355.0" cy="50.0" r="4.0"/>
<circle cx="370.0" cy="90.0" r="3.0"/>
<circle cx="345.0" cy="110.0" r="3.5"/>
<circle cx="290.0" cy="110.0" r="3.0"/>
<circle cx="260.0" cy="130.0" r="4.0"/>

</g>
</svg>
