<svg xmlns="http://www.w3.org/2000/svg" viewBox="0 0 400 160" width="400" height="160">
<g fill="currentColor">
<path d="M100,160 Q105,130 115,105 Q125,80 140,60 Q155,40 175,25" stroke="currentColor" stroke-width="8" fill="currentColor" stroke-linecap="round"/>
<path d="M140,60 Q160,55 185,58 Q205,60 220,68" stroke="currentColor" stroke-width="5" fill="currentColor" stroke-linecap="round"/>
<path d="M125,90 Q105,85 85,82 Q68,80 52,85" stroke="currentColor" stroke-width="4" fill="currentColor" stroke-linecap="round"/>
<path d="M155,42 Q160,30 168,20" stroke="currentColor" stroke-width="3" fill="currentColor" stroke-linecap="round"/>
<ellipse cx="182.8" cy="22.0" rx="4.9" ry="7.2" transform="rotate(90.0,182.8,22.0)"/>
<ellipse cx="177.4" cy="29.4" rx="4.9" ry="7.2" transform="rotate(162.0,177.4,29.4)"/>
<ellipse cx="168.7" cy="26.6" rx="4.9" ry="7.2" transform="rotate(234.0,168.7,26.6)"/>
<ellipse cx="168.7" cy="17.4" rx="4.9" ry="7.2" transform="rotate(306.0,168.7,17.4)"/>
<ellipse cx="177.4" cy="14.6" rx="4.9" ry="7.2" transform="rotate(378.0,177.4,14.6)"/>
<circle cx="175.0" cy="22.0" r="2.6"/>
<ellipse cx="173.8" cy="19.6" rx="3.8" ry="5.5" transform="rotate(105.0,173.8,19.6)"/>
<ellipse cx="168.3" cy="24.0" rx="3.8" ry="5.5" transform="rotate(177.0,168.3,24.0)"/>
<ellipse cx="162.4" cy="20.2" rx="3.8" ry="5.5" transform="rotate(249.0,162.4,20.2)"/>
<ellipse cx="164.2" cy="13.3" rx="3.8" ry="5.5" transform="rotate(321.0,164.2,13.3)"/>
<ellipse cx="171.3" cy="13.0" rx="3.8" ry="5.5" transform="rotate(393.0,171.3,13.0)"/>
<circle cx="168.0" cy="18.0" r="2.0"/>
<ellipse cx="227.2" cy="65.6" rx="4.6" ry="6.6" transform="rotate(95.0,227.2,65.6)"/>
<ellipse cx="221.6" cy="72.0" rx="4.6" ry="6.6" transform="rotate(167.0,221.6,72.0)"/>
<ellipse cx="213.8" cy="68.7" rx="4.6" ry="6.6" transform="rotate(239.0,213.8,68.7)"/>
<ellipse cx="214.6" cy="60.3" rx="4.6" ry="6.6" transform="rotate(311.0,214.6,60.3)"/>
<ellipse cx="222.8" cy="58.4" rx="4.6" ry="6.6" transform="rotate(383.0,222.8,58.4)"/>
<circle cx="220.0" cy="65.0" r="2.4"/>
<ellipse cx="56.2" cy="84.3" rx="4.2" ry="6.1" transform="rotate(110.0,56.2,84.3)"/>
<ellipse cx="49.8" cy="88.6" rx="4.2" ry="6.1" transform="rotate(182.0,49.8,88.6)"/>
<ellipse cx="43.7" cy="83.8" rx="4.2" ry="6.1" transform="rotate(254.0,43.7,83.8)"/>
<ellipse cx="46.3" cy="76.5" rx="4.2" ry="6.1" transform="rotate(326.0,46.3,76.5)"/>
<ellipse cx="54.1" cy="76.8" rx="4.2" ry="6.1" transform="rotate(398.0,54.1,76.8)"/>
<circle cx="50.0" cy="82.0" r="2.2"/>
<ellipse cx="227.3" cy="67.1" rx="3.4" ry="5.0" transform="rotate(80.0,227.3,67.1)"/>
<ellipse cx="224.5" cy="72.8" rx="3.4" ry="5.0" transform="rotate(152.0,224.5,72.8)"/>
<ellipse cx="218.2" cy="71.9" rx="3.4" ry="5.0" transform="rotate(224.0,218.2,71.9)"/>
<ellipse cx="217.1" cy="65.6" rx="3.4" ry="5.0" transform="rotate(296.0,217.1,65.6)"/>
<ellipse cx="222.8" cy="62.7" rx="3.4" ry="5.0" transform="rotate(368.0,222.8,62.7)"/>
<circle cx="222.0" cy="68.0" r="1.8"/>
<ellipse cx="160.2" cy="58.0" rx="3.8" ry="5.5" transform="rotate(120.0,160.2,58.0)"/>
<ellipse cx="153.8" cy="60.9" rx="3.8" ry="5.5" transform="rotate(192.0,153.8,60.9)"/>
<ellipse cx="149.0" cy="55.6" rx="3.8" ry="5.5" transform="rotate(264.0,149.0,55.6)"/>
<ellipse cx="152.6" cy="49.5" rx="3.8" ry="5.5" transform="rotate(336.0,152.6,49.5)"/>
<ellipse cx="159.5" cy="51.0" rx="3.8" ry="5.5" transform="rotate(408.0,159.5,51.0)"/>
<circle cx="155.0" cy="55.0" r="2.0"/>
<ellipse cx="93.4" cy="80.0" rx="3.4" ry="5.0" transform="rotate(90.0,93.4,80.0)"/>
<ellipse cx="89.7" cy="85.1" rx="3.4" ry="5.0" transform="rotate(162.0,89.7,85.1)"/>
<ellipse cx="83.6" cy="83.2" rx="3.4" ry="5.0" transform="rotate(234.0,83.6,83.2)"/>
<ellipse cx="83.6" cy="76.8" rx="3.4" ry="5.0" transform="rotate(306.0,83.6,76.8)"/>
<ellipse cx="89.7" cy="74.9" rx="3.4" ry="5.0" transform="rotate(378.0,89.7,74.9)"/>
<circle cx="88.0" cy="80.0" r="1.8"/>
<ellipse cx="260.0" cy="40.0" rx="6.0" ry="4.0" transform="rotate(20,260.0,40.0)"/>
<ellipse cx="290.0" cy="25.0" rx="5.0" ry="3.0" transform="rotate(-15,290.0,25.0)"/>
<ellipse cx="310.0" cy="55.0" rx="5.0" ry="3.5" transform="rotate(40,310.0,55.0)"/>
<ellipse cx="270.0" cy="75.0" rx="4.0" ry="3.0" transform="rotate(10,270.0,75.0)"/>
<ellipse cx="330.0" cy="35.0" rx="4.0" ry="2.5" transform="rotate(-30,330.0,35.0)"/>
<ellipse cx="340.0" cy="70.0" rx="5.0" ry="3.0" transform="rotate(55,340.0,70.0)"/>

</g>
</svg>
