<svg xmlns="http://www.w3.org/2000/svg" viewBox="0 0 400 160">
<g fill="currentColor">
<path d="M80,160 Q90,130 100,100 Q112,70 130,50 Q148,32 170,22" stroke="currentColor" stroke-width="7" fill="none" stroke-linecap="round"/>
<path d="M130,50 Q155,45 178,48 Q198,50 215,58" stroke="currentColor" stroke-width="4" fill="none" stroke-linecap="round"/>
<path d="M108,75 Q90,68 70,65 Q55,63 42,68" stroke="currentColor" stroke-width="3.5" fill="none" stroke-linecap="round"/>
<ellipse cx="174.2" cy="24.2" rx="5.0" ry="7.0" transform="rotate(135.0,174.2,24.2)"/>
<ellipse cx="165.8" cy="24.2" rx="5.0" ry="7.0" transform="rotate(225.0,165.8,24.2)"/>
<ellipse cx="165.8" cy="15.8" rx="5.0" ry="7.0" transform="rotate(315.0,165.8,15.8)"/>
<ellipse cx="174.2" cy="15.8" rx="5.0" ry="7.0" transform="rotate(405.0,174.2,15.8)"/>
<circle cx="170.0" cy="20.0" r="2.5"/>
<ellipse cx="218.8" cy="58.8" rx="4.5" ry="6.3" transform="rotate(135.0,218.8,58.8)"/>
<ellipse cx="211.2" cy="58.8" rx="4.5" ry="6.3" transform="rotate(225.0,211.2,58.8)"/>
<ellipse cx="211.2" cy="51.2" rx="4.5" ry="6.3" transform="rotate(315.0,211.2,51.2)"/>
<ellipse cx="218.8" cy="51.2" rx="4.5" ry="6.3" transform="rotate(405.0,218.8,51.2)"/>
<circle cx="215.0" cy="55.0" r="2.2"/>
<ellipse cx="45.8" cy="68.8" rx="4.5" ry="6.3" transform="rotate(135.0,45.8,68.8)"/>
<ellipse cx="38.2" cy="68.8" rx="4.5" ry="6.3" transform="rotate(225.0,38.2,68.8)"/>
<ellipse cx="38.2" cy="61.2" rx="4.5" ry="6.3" transform="rotate(315.0,38.2,61.2)"/>
<ellipse cx="45.8" cy="61.2" rx="4.5" ry="6.3" transform="rotate(405.0,45.8,61.2)"/>
<circle cx="42.0" cy="65.0" r="2.2"/>
<ellipse cx="181.4" cy="49.4" rx="4.0" ry="5.6" transform="rotate(135.0,181.4,49.4)"/>
<ellipse cx="174.6" cy="49.4" rx="4.0" ry="5.6" transform="rotate(225.0,174.6,49.4)"/>
<ellipse cx="174.6" cy="42.6" rx="4.0" ry="5.6" transform="rotate(315.0,174.6,42.6)"/>
<ellipse cx="181.4" cy="42.6" rx="4.0" ry="5.6" transform="rotate(405.0,181.4,42.6)"/>
<circle cx="178.0" cy="46.0" r="2.0"/>
<ellipse cx="158.0" cy="45.0" rx="3.5" ry="4.9" transform="rotate(135.0,158.0,45.0)"/>
<ellipse cx="152.0" cy="45.0" rx="3.5" ry="4.9" transform="rotate(225.0,152.0,45.0)"/>
<ellipse cx="152.0" cy="39.0" rx="3.5" ry="4.9" transform="rotate(315.0,152.0,39.0)"/>
<ellipse cx="158.0" cy="39.0" rx="3.5" ry="4.9" transform="rotate(405.0,158.0,39.0)"/>
<circle cx="155.0" cy="42.0" r="1.8"/>
<ellipse cx="98.4" cy="68.4" rx="4.0" ry="5.6" transform="rotate(135.0,98.4,68.4)"/>
<ellipse cx="91.6" cy="68.4" rx="4.0" ry="5.6" transform="rotate(225.0,91.6,68.4)"/>
<ellipse cx="91.6" cy="61.6" rx="4.0" ry="5.6" transform="rotate(315.0,91.6,61.6)"/>
<ellipse cx="98.4" cy="61.6" rx="4.0" ry="5.6" transform="rotate(405.0,98.4,61.6)"/>
<circle cx="95.0" cy="65.0" r="2.0"/>
<ellipse cx="233.4" cy="73.4" rx="4.0" ry="5.6" transform="rotate(135.0,233.4,73.4)"/>
<ellipse cx="226.6" cy="73.4" rx="4.0" ry="5.6" transform="rotate(225.0,226.6,73.4)"/>
<ellipse cx="226.6" cy="66.6" rx="4.0" ry="5.6" transform="rotate(315.0,226.6,66.6)"/>
<ellipse cx="233.4" cy="66.6" rx="4.0" ry="5.6" transform="rotate(405.0,233.4,66.6)"/>
<circle cx="230.0" cy="70.0" r="2.0"/>
<g transform="translate(290,55) rotate(-10)">
<ellipse cx="-13.2" cy="-11.0" rx="15.4" ry="9.9" transform="rotate(-25,-13.2,-11.0)"/>
<ellipse cx="13.2" cy="-11.0" rx="15.4" ry="9.9" transform="rotate(25,13.2,-11.0)"/>
<ellipse cx="-12.1" cy="6.6" rx="11.0" ry="6.6" transform="rotate(20,-12.1,6.6)"/>
<ellipse cx="12.1" cy="6.6" rx="11.0" ry="6.6" transform="rotate(-20,12.1,6.6)"/>
<ellipse cx="0" cy="0" rx="2.6" ry="12.1"/>
</g>
<g transform="translate(330,30) rotate(15)">
<ellipse cx="-9.6" cy="-8.0" rx="11.2" ry="7.2" transform="rotate(-25,-9.6,-8.0)"/>
<ellipse cx="9.6" cy="-8.0" rx="11.2" ry="7.2" transform="rotate(25,9.6,-8.0)"/>
<ellipse cx="-8.8" cy="4.8" rx="8.0" ry="4.8" transform="rotate(20,-8.8,4.8)"/>
<ellipse cx="8.8" cy="4.8" rx="8.0" ry="4.8" transform="rotate(-20,8.8,4.8)"/>
<ellipse cx="0" cy="0" rx="1.9" ry="8.8"/>
</g>
<g transform="translate(350,80) rotate(-20)">
<ellipse cx="-7.8" cy="-6.5" rx="9.1" ry="5.9" transform="rotate(-25,-7.8,-6.5)"/>
<ellipse cx="7.8" cy="-6.5" rx="9.1" ry="5.9" transform="rotate(25,7.8,-6.5)"/>
<ellipse cx="-7.2" cy="3.9" rx="6.5" ry="3.9" transform="rotate(20,-7.2,3.9)"/>
<ellipse cx="7.2" cy="3.9" rx="6.5" ry="3.9" transform="rotate(-20,7.2,3.9)"/>
<ellipse cx="0" cy="0" rx="1.6" ry="7.2"/>
</g>

</g>
</svg>
