<svg xmlns="http://www.w3.org/2000/svg" viewBox="0 0 400 160" width="400" height="160">
<g fill="currentColor">
<line x1="20" y1="105" x2="380" y2="105" stroke="currentColor" stroke-width="1.5" stroke-dasharray="8,4"/>
<line x1="20" y1="118" x2="380" y2="118" stroke="currentColor" stroke-width="1.5" stroke-dasharray="8,4"/>
<line x1="20" y1="131" x2="380" y2="131" stroke="currentColor" stroke-width="1.5" stroke-dasharray="8,4"/>
<line x1="20" y1="144" x2="380" y2="144" stroke="currentColor" stroke-width="1.5" stroke-dasharray="8,4"/>
<line x1="30" y1="108" x2="30" y2="80" stroke="currentColor" stroke-width="2" stroke-linecap="round"/>
<path d="M30,91.2 Q42,85.6 38,80" stroke="currentColor" stroke-width="2" fill="currentColor" stroke-linecap="round"/>
<path d="M30,96.8 Q20,89.8 23,84.2" stroke="currentColor" stroke-width="2" fill="currentColor" stroke-linecap="round"/>
<line x1="58" y1="108" x2="58" y2="75" stroke="currentColor" stroke-width="2" stroke-linecap="round"/>
<path d="M58,88.2 Q70,81.6 66,75" stroke="currentColor" stroke-width="2" fill="currentColor" stroke-linecap="round"/>
<path d="M58,94.8 Q48,86.55 51,79.95" stroke="currentColor" stroke-width="2" fill="currentColor" stroke-linecap="round"/>
<line x1="86" y1="108" x2="86" y2="70" stroke="currentColor" stroke-width="2" stroke-linecap="round"/>
<path d="M86,85.2 Q98,77.6 94,70" stroke="currentColor" stroke-width="2" fill="currentColor" stroke-linecap="round"/>
<path d="M86,92.8 Q76,83.3 79,75.7" stroke="currentColor" stroke-width="2" fill="currentColor" stroke-linecap="round"/>
<line x1="114" y1="108" x2="114" y2="80" stroke="currentColor" stroke-width="2" stroke-linecap="round"/>
<path d="M114,91.2 Q126,85.6 122,80" stroke="currentColor" stroke-width="2" fill="currentColor" stroke-linecap="round"/>
<path d="M114,96.8 Q104,89.8 107,84.2" stroke="currentColor" stroke-width="2" fill="currentColor" stroke-linecap="round"/>
<line x1="142" y1="108" x2="142" y2="75" stroke="currentColor" stroke-width="2" stroke-linecap="round"/>
<path d="M142,88.2 Q154,81.6 150,75" stroke="currentColor" stroke-width="2" fill="currentColor" stroke-linecap="round"/>
<path d="M142,94.8 Q132,86.55 135,79.95" stroke="currentColor" stroke-width="2" fill="currentColor" stroke-linecap="round"/>
<line x1="170" y1="108" x2="170" y2="70" stroke="currentColor" stroke-width="2" stroke-linecap="round"/>
<path d="M170,85.2 Q182,77.6 178,70" stroke="currentColor" stroke-width="2" fill="currentColor" stroke-linecap="round"/>
<path d="M170,92.8 Q160,83.3 163,75.7" stroke="currentColor" stroke-width="2" fill="currentColor" stroke-linecap="round"/>
<line x1="198" y1="108" x2="198" y2="80" stroke="currentColor" stroke-width="2" stroke-linecap="round"/>
<path d="M198,91.2 Q210,85.6 206,80" stroke="currentColor" stroke-width="2" fill="currentColor" stroke-linecap="round"/>
<path d="M198,96.8 Q188,89.8 191,84.2" stroke="currentColor" stroke-width="2" fill="currentColor" stroke-linecap="round"/>
<line x1="226" y1="108" x2="226" y2="75" stroke="currentColor" stroke-width="2" stroke-linecap="round"/>
<path d="M226,88.2 Q238,81.6 234,75" stroke="currentColor" stroke-width="2" fill="currentColor" stroke-linecap="round"/>
<path d="M226,94.8 Q216,86.55 219,79.95" stroke="currentColor" stroke-width="2" fill="currentColor" stroke-linecap="round"/>
<line x1="254" y1="108" x2="254" y2="70" stroke="currentColor" stroke-width="2" stroke-linecap="round"/>
<path d="M254,85.2 Q266,77.6 262,70" stroke="currentColor" stroke-width="2" fill="currentColor" stroke-linecap="round"/>
<path d="M254,92.8 Q244,83.3 247,75.7" stroke="currentColor" stroke-width="2" fill="currentColor" stroke-linecap="round"/>
<line x1="282" y1="108" x2="282" y2="80" stroke="currentColor" stroke-width="2" stroke-linecap="round"/>
<path d="M282,91.2 Q294,85.6 290,80" stroke="currentColor" stroke-width="2" fill="currentColor" stroke-linecap="round"/>
<path d="M282,96.8 Q272,89.8 275,84.2" stroke="currentColor" stroke-width="2" fill="currentColor" stroke-linecap="round"/>
<line x1="310" y1="108" x2="310" y2="75" stroke="currentColor" stroke-width="2" stroke-linecap="round"/>
<path d="M310,88.2 Q322,81.6 318,75" stroke="currentColor" stroke-width="2" fill="currentColor" stroke-linecap="round"/>
<path d="M310,94.8 Q300,86.55 303,79.95" stroke="currentColor" stroke-width="2" fill="currentColor" stroke-linecap="round"/>
<line x1="338" y1="108" x2="338" y2="70" stroke="currentColor" stroke-width="2" stroke-linecap="round"/>
<path d="M338,85.2 Q350,77.6 346,70" stroke="currentColor" stroke-width="2" fill="currentColor" stroke-linecap="round"/>
<path d="M338,92.8 Q328,83.3 331,75.7" stroke="currentColor" stroke-width="2" fill="currentColor" stroke-linecap="round"/>
<line x1="366" y1="108" x2="366" y2="80" stroke="currentColor" stroke-width="2" stroke-linecap="round"/>
<path d="M366,91.2 Q378,85.6 374,80" stroke="currentColor" stroke-width="2" fill="currentColor" stroke-linecap="round"/>
<path d="M366,96.8 Q356,89.8 359,84.2" stroke="currentColor" stroke-width="2" fill="currentColor" stroke-linecap="round"/>
<circle cx="155.0" cy="60.0" r="10.0"/>
<path d="M155,70 Q160,80 173,86" stroke="currentColor" stroke-width="8" fill="currentColor" stroke-linecap="round"/>
<path d="M173,86 Q177,96 175,103" stroke="currentColor" stroke-width="5" fill="currentColor" stroke-linecap="round"/>
<path d="M155,70 Q153,88 147,100 Q141,108 139,108" stroke="currentColor" stroke-width="7" fill="currentColor" stroke-linecap="round"/>
<path d="M155,70 Q157,86 161,98 Q165,106 163,108" stroke="currentColor" stroke-width="7" fill="currentColor" stroke-linecap="round"/>
<ellipse cx="153" cy="52" rx="18" ry="6"/>
<ellipse cx="151" cy="48" rx="10" ry="8"/>
<circle cx="240.0" cy="60.0" r="10.0"/>
<path d="M240,70 Q245,80 258,86" stroke="currentColor" stroke-width="8" fill="currentColor" stroke-linecap="round"/>
<path d="M258,86 Q262,96 260,103" stroke="currentColor" stroke-width="5" fill="currentColor" stroke-linecap="round"/>
<path d="M240,70 Q238,88 232,100 Q226,108 224,108" stroke="currentColor" stroke-width="7" fill="currentColor" stroke-linecap="round"/>
<path d="M240,70 Q242,86 246,98 Q250,106 248,108" stroke="currentColor" stroke-width="7" fill="currentColor" stroke-linecap="round"/>
<ellipse cx="238" cy="52" rx="18" ry="6"/>
<ellipse cx="236" cy="48" rx="10" ry="8"/>

</g>
</svg>
