<svg xmlns="http://www.w3.org/2000/svg" viewBox="0 0 400 160">
<g fill="currentColor">
<path d="M278,13 Q280,20.8 278,26 Q276,20.8 278,13 Z"/>
<path d="M320,41 Q322,46.4 320,50 Q318,46.4 320,41 Z"/>
<path d="M285,104 Q287,108.8 285,112 Q283,108.8 285,104 Z"/>
<path d="M389,21 Q391,28.2 389,33 Q387,28.2 389,21 Z"/>
<path d="M358,14 Q360,18.8 358,22 Q356,18.8 358,14 Z"/>
<path d="M273,37 Q275,42.4 273,46 Q271,42.4 273,37 Z"/>
<path d="M379,87 Q381,91.8 379,95 Q377,91.8 379,87 Z"/>
<path d="M300,101 Q302,108.8 300,114 Q298,108.8 300,101 Z"/>
<path d="M389,63 Q391,68.4 389,72 Q387,68.4 389,63 Z"/>
<path d="M364,85 Q366,91.0 364,95 Q362,91.0 364,85 Z"/>
<path d="M251,107 Q253,115.4 251,121 Q249,115.4 251,107 Z"/>
<path d="M290,99 Q292,105.6 290,110 Q288,105.6 290,99 Z"/>
<path d="M337,45 Q339,50.4 337,54 Q335,50.4 337,45 Z"/>
<path d="M305,107 Q307,113.0 305,117 Q303,113.0 305,107 Z"/>
<path d="M276,21 Q278,27.6 276,32 Q274,27.6 276,21 Z"/>
<path d="M274,55 Q276,63.4 274,69 Q272,63.4 274,55 Z"/>
<path d="M338,87 Q340,93.0 338,97 Q336,93.0 338,87 Z"/>
<path d="M261,103 Q263,109.6 261,114 Q259,109.6 261,103 Z"/>
<ellipse cx="96.0" cy="85.0" rx="4.5" ry="5.5" transform="rotate(90.0,96.0,85.0)"/>
<ellipse cx="90.0" cy="91.0" rx="4.5" ry="5.5" transform="rotate(180.0,90.0,91.0)"/>
<ellipse cx="84.0" cy="85.0" rx="4.5" ry="5.5" transform="rotate(270.0,84.0,85.0)"/>
<ellipse cx="90.0" cy="79.0" rx="4.5" ry="5.5" transform="rotate(360.0,90.0,79.0)"/>
<circle cx="90.0" cy="85.0" r="2.0"/>
<ellipse cx="111.4" cy="85.0" rx="4.0" ry="5.0" transform="rotate(90.0,111.4,85.0)"/>
<ellipse cx="106.0" cy="90.4" rx="4.0" ry="5.0" transform="rotate(180.0,106.0,90.4)"/>
<ellipse cx="100.6" cy="85.0" rx="4.0" ry="5.0" transform="rotate(270.0,100.6,85.0)"/>
<ellipse cx="106.0" cy="79.6" rx="4.0" ry="5.0" transform="rotate(360.0,106.0,79.6)"/>
<circle cx="106.0" cy="85.0" r="1.8"/>
<ellipse cx="109.3" cy="93.0" rx="4.0" ry="5.0" transform="rotate(90.0,109.3,93.0)"/>
<ellipse cx="103.9" cy="98.4" rx="4.0" ry="5.0" transform="rotate(180.0,103.9,98.4)"/>
<ellipse cx="98.5" cy="93.0" rx="4.0" ry="5.0" transform="rotate(270.0,98.5,93.0)"/>
<ellipse cx="103.9" cy="87.6" rx="4.0" ry="5.0" transform="rotate(360.0,103.9,87.6)"/>
<circle cx="103.9" cy="93.0" r="1.8"/>
<ellipse cx="103.4" cy="98.9" rx="4.0" ry="5.0" transform="rotate(90.0,103.4,98.9)"/>
<ellipse cx="98.0" cy="104.3" rx="4.0" ry="5.0" transform="rotate(180.0,98.0,104.3)"/>
<ellipse cx="92.6" cy="98.9" rx="4.0" ry="5.0" transform="rotate(270.0,92.6,98.9)"/>
<ellipse cx="98.0" cy="93.5" rx="4.0" ry="5.0" transform="rotate(360.0,98.0,93.5)"/>
<circle cx="98.0" cy="98.9" r="1.8"/>
<ellipse cx="95.4" cy="101.0" rx="4.0" ry="5.0" transform="rotate(90.0,95.4,101.0)"/>
<ellipse cx="90.0" cy="106.4" rx="4.0" ry="5.0" transform="rotate(180.0,90.0,106.4)"/>
<ellipse cx="84.6" cy="101.0" rx="4.0" ry="5.0" transform="rotate(270.0,84.6,101.0)"/>
<ellipse cx="90.0" cy="95.6" rx="4.0" ry="5.0" transform="rotate(360.0,90.0,95.6)"/>
<circle cx="90.0" cy="101.0" r="1.8"/>
<ellipse cx="87.4" cy="98.9" rx="4.0" ry="5.0" transform="rotate(90.0,87.4,98.9)"/>
<ellipse cx="82.0" cy="104.3" rx="4.0" ry="5.0" transform="rotate(180.0,82.0,104.3)"/>
<ellipse cx="76.6" cy="98.9" rx="4.0" ry="5.0" transform="rotate(270.0,76.6,98.9)"/>
<ellipse cx="82.0" cy="93.5" rx="4.0" ry="5.0" transform="rotate(360.0,82.0,93.5)"/>
<circle cx="82.0" cy="98.9" r="1.8"/>
<ellipse cx="81.5" cy="93.0" rx="4.0" ry="5.0" transform="rotate(90.0,81.5,93.0)"/>
<ellipse cx="76.1" cy="98.4" rx="4.0" ry="5.0" transform="rotate(180.0,76.1,98.4)"/>
<ellipse cx="70.7" cy="93.0" rx="4.0" ry="5.0" transform="rotate(270.0,70.7,93.0)"/>
<ellipse cx="76.1" cy="87.6" rx="4.0" ry="5.0" transform="rotate(360.0,76.1,87.6)"/>
<circle cx="76.1" cy="93.0" r="1.8"/>
<ellipse cx="79.4" cy="85.0" rx="4.0" ry="5.0" transform="rotate(90.0,79.4,85.0)"/>
<ellipse cx="74.0" cy="90.4" rx="4.0" ry="5.0" transform="rotate(180.0,74.0,90.4)"/>
<ellipse cx="68.6" cy="85.0" rx="4.0" ry="5.0" transform="rotate(270.0,68.6,85.0)"/>
<ellipse cx="74.0" cy="79.6" rx="4.0" ry="5.0" transform="rotate(360.0,74.0,79.6)"/>
<circle cx="74.0" cy="85.0" r="1.8"/>
<ellipse cx="81.5" cy="77.0" rx="4.0" ry="5.0" transform="rotate(90.0,81.5,77.0)"/>
<ellipse cx="76.1" cy="82.4" rx="4.0" ry="5.0" transform="rotate(180.0,76.1,82.4)"/>
<ellipse cx="70.7" cy="77.0" rx="4.0" ry="5.0" transform="rotate(270.0,70.7,77.0)"/>
<ellipse cx="76.1" cy="71.6" rx="4.0" ry="5.0" transform="rotate(360.0,76.1,71.6)"/>
<circle cx="76.1" cy="77.0" r="1.8"/>
<ellipse cx="87.4" cy="71.1" rx="4.0" ry="5.0" transform="rotate(90.0,87.4,71.1)"/>
<ellipse cx="82.0" cy="76.5" rx="4.0" ry="5.0" transform="rotate(180.0,82.0,76.5)"/>
<ellipse cx="76.6" cy="71.1" rx="4.0" ry="5.0" transform="rotate(270.0,76.6,71.1)"/>
<ellipse cx="82.0" cy="65.7" rx="4.0" ry="5.0" transform="rotate(360.0,82.0,65.7)"/>
<circle cx="82.0" cy="71.1" r="1.8"/>
<ellipse cx="95.4" cy="69.0" rx="4.0" ry="5.0" transform="rotate(90.0,95.4,69.0)"/>
<ellipse cx="90.0" cy="74.4" rx="4.0" ry="5.0" transform="rotate(180.0,90.0,74.4)"/>
<ellipse cx="84.6" cy="69.0" rx="4.0" ry="5.0" transform="rotate(270.0,84.6,69.0)"/>
<ellipse cx="90.0" cy="63.6" rx="4.0" ry="5.0" transform="rotate(360.0,90.0,63.6)"/>
<circle cx="90.0" cy="69.0" r="1.8"/>
<ellipse cx="103.4" cy="71.1" rx="4.0" ry="5.0" transform="rotate(90.0,103.4,71.1)"/>
<ellipse cx="98.0" cy="76.5" rx="4.0" ry="5.0" transform="rotate(180.0,98.0,76.5)"/>
<ellipse cx="92.6" cy="71.1" rx="4.0" ry="5.0" transform="rotate(270.0,92.6,71.1)"/>
<ellipse cx="98.0" cy="65.7" rx="4.0" ry="5.0" transform="rotate(360.0,98.0,65.7)"/>
<circle cx="98.0" cy="71.1" r="1.8"/>
<ellipse cx="109.3" cy="77.0" rx="4.0" ry="5.0" transform="rotate(90.0,109.3,77.0)"/>
<ellipse cx="103.9" cy="82.4" rx="4.0" ry="5.0" transform="rotate(180.0,103.9,82.4)"/>
<ellipse cx="98.5" cy="77.0" rx="4.0" ry="5.0" transform="rotate(270.0,98.5,77.0)"/>
<ellipse cx="103.9" cy="71.6" rx="4.0" ry="5.0" transform="rotate(360.0,103.9,71.6)"/>
<circle cx="103.9" cy="77.0" r="1.8"/>
<ellipse cx="190.4" cy="75.0" rx="4.0" ry="5.0" transform="rotate(90.0,190.4,75.0)"/>
<ellipse cx="185.0" cy="80.4" rx="4.0" ry="5.0" transform="rotate(180.0,185.0,80.4)"/>
<ellipse cx="179.6" cy="75.0" rx="4.0" ry="5.0" transform="rotate(270.0,179.6,75.0)"/>
<ellipse cx="185.0" cy="69.6" rx="4.0" ry="5.0" transform="rotate(360.0,185.0,69.6)"/>
<circle cx="185.0" cy="75.0" r="1.8"/>
<ellipse cx="204.3" cy="75.0" rx="3.6" ry="4.5" transform="rotate(90.0,204.3,75.0)"/>
<ellipse cx="199.4" cy="79.9" rx="3.6" ry="4.5" transform="rotate(180.0,199.4,79.9)"/>
<ellipse cx="194.5" cy="75.0" rx="3.6" ry="4.5" transform="rotate(270.0,194.5,75.0)"/>
<ellipse cx="199.4" cy="70.1" rx="3.6" ry="4.5" transform="rotate(360.0,199.4,70.1)"/>
<circle cx="199.4" cy="75.0" r="1.6"/>
<ellipse cx="201.5" cy="83.5" rx="3.6" ry="4.5" transform="rotate(90.0,201.5,83.5)"/>
<ellipse cx="196.6" cy="88.3" rx="3.6" ry="4.5" transform="rotate(180.0,196.6,88.3)"/>
<ellipse cx="191.8" cy="83.5" rx="3.6" ry="4.5" transform="rotate(270.0,191.8,83.5)"/>
<ellipse cx="196.6" cy="78.6" rx="3.6" ry="4.5" transform="rotate(360.0,196.6,78.6)"/>
<circle cx="196.6" cy="83.5" r="1.6"/>
<ellipse cx="194.3" cy="88.7" rx="3.6" ry="4.5" transform="rotate(90.0,194.3,88.7)"/>
<ellipse cx="189.4" cy="93.6" rx="3.6" ry="4.5" transform="rotate(180.0,189.4,93.6)"/>
<ellipse cx="184.6" cy="88.7" rx="3.6" ry="4.5" transform="rotate(270.0,184.6,88.7)"/>
<ellipse cx="189.4" cy="83.8" rx="3.6" ry="4.5" transform="rotate(360.0,189.4,83.8)"/>
<circle cx="189.4" cy="88.7" r="1.6"/>
<ellipse cx="185.4" cy="88.7" rx="3.6" ry="4.5" transform="rotate(90.0,185.4,88.7)"/>
<ellipse cx="180.6" cy="93.6" rx="3.6" ry="4.5" transform="rotate(180.0,180.6,93.6)"/>
<ellipse cx="175.7" cy="88.7" rx="3.6" ry="4.5" transform="rotate(270.0,175.7,88.7)"/>
<ellipse cx="180.6" cy="83.8" rx="3.6" ry="4.5" transform="rotate(360.0,180.6,83.8)"/>
<circle cx="180.6" cy="88.7" r="1.6"/>
<ellipse cx="178.2" cy="83.5" rx="3.6" ry="4.5" transform="rotate(90.0,178.2,83.5)"/>
<ellipse cx="173.4" cy="88.3" rx="3.6" ry="4.5" transform="rotate(180.0,173.4,88.3)"/>
<ellipse cx="168.5" cy="83.5" rx="3.6" ry="4.5" transform="rotate(270.0,168.5,83.5)"/>
<ellipse cx="173.4" cy="78.6" rx="3.6" ry="4.5" transform="rotate(360.0,173.4,78.6)"/>
<circle cx="173.4" cy="83.5" r="1.6"/>
<ellipse cx="175.5" cy="75.0" rx="3.6" ry="4.5" transform="rotate(90.0,175.5,75.0)"/>
<ellipse cx="170.6" cy="79.9" rx="3.6" ry="4.5" transform="rotate(180.0,170.6,79.9)"/>
<ellipse cx="165.7" cy="75.0" rx="3.6" ry="4.5" transform="rotate(270.0,165.7,75.0)"/>
<ellipse cx="170.6" cy="70.1" rx="3.6" ry="4.5" transform="rotate(360.0,170.6,70.1)"/>
<circle cx="170.6" cy="75.0" r="1.6"/>
<ellipse cx="178.2" cy="66.5" rx="3.6" ry="4.5" transform="rotate(90.0,178.2,66.5)"/>
<ellipse cx="173.4" cy="71.4" rx="3.6" ry="4.5" transform="rotate(180.0,173.4,71.4)"/>
<ellipse cx="168.5" cy="66.5" rx="3.6" ry="4.5" transform="rotate(270.0,168.5,66.5)"/>
<ellipse cx="173.4" cy="61.7" rx="3.6" ry="4.5" transform="rotate(360.0,173.4,61.7)"/>
<circle cx="173.4" cy="66.5" r="1.6"/>
<ellipse cx="185.4" cy="61.3" rx="3.6" ry="4.5" transform="rotate(90.0,185.4,61.3)"/>
<ellipse cx="180.6" cy="66.2" rx="3.6" ry="4.5" transform="rotate(180.0,180.6,66.2)"/>
<ellipse cx="175.7" cy="61.3" rx="3.6" ry="4.5" transform="rotate(270.0,175.7,61.3)"/>
<ellipse cx="180.6" cy="56.4" rx="3.6" ry="4.5" transform="rotate(360.0,180.6,56.4)"/>
<circle cx="180.6" cy="61.3" r="1.6"/>
<ellipse cx="194.3" cy="61.3" rx="3.6" ry="4.5" transform="rotate(90.0,194.3,61.3)"/>
<ellipse cx="189.4" cy="66.2" rx="3.6" ry="4.5" transform="rotate(180.0,189.4,66.2)"/>
<ellipse cx="184.6" cy="61.3" rx="3.6" ry="4.5" transform="rotate(270.0,184.6,61.3)"/>
<ellipse cx="189.4" cy="56.4" rx="3.6" ry="4.5" transform="rotate(360.0,189.4,56.4)"/>
<circle cx="189.4" cy="61.3" r="1.6"/>
<ellipse cx="201.5" cy="66.5" rx="3.6" ry="4.5" transform="rotate(90.0,201.5,66.5)"/>
<ellipse cx="196.6" cy="71.4" rx="3.6" ry="4.5" transform="rotate(180.0,196.6,71.4)"/>
<ellipse cx="191.8" cy="66.5" rx="3.6" ry="4.5" transform="rotate(270.0,191.8,66.5)"/>
<ellipse cx="196.6" cy="61.7" rx="3.6" ry="4.5" transform="rotate(360.0,196.6,61.7)"/>
<circle cx="196.6" cy="66.5" r="1.6"/>
<path d="M90,120 Q60,110 50,90 Q65,85 90,95 Z"/>
<path d="M185,115 Q210,105 218,88 Q200,82 185,95 Z"/>
<path d="M90,120 Q92,140 95,160" stroke="currentColor" stroke-width="4" fill="none"/>
<path d="M185,115 Q187,135 188,160" stroke="currentColor" stroke-width="4" fill="none"/>

</g>
</svg>
