<svg xmlns="http://www.w3.org/2000/svg" viewBox="0 0 400 160" width="400" height="160">
<g fill="currentColor">
<circle cx="302.0" cy="43.0" r="1.9"/>
<circle cx="232.0" cy="23.0" r="2.8"/>
<circle cx="244.0" cy="98.0" r="2.3"/>
<circle cx="349.0" cy="59.0" r="1.1"/>
<circle cx="331.0" cy="112.0" r="1.2"/>
<circle cx="243.0" cy="146.0" r="1.9"/>
<circle cx="364.0" cy="36.0" r="3.1"/>
<circle cx="381.0" cy="154.0" r="3.1"/>
<circle cx="367.0" cy="154.0" r="1.9"/>
<circle cx="276.0" cy="16.0" r="2.2"/>
<circle cx="254.0" cy="79.0" r="1.9"/>
<circle cx="358.0" cy="35.0" r="2.3"/>
<circle cx="363.0" cy="51.0" r="1.2"/>
<circle cx="366.0" cy="53.0" r="1.8"/>
<circle cx="360.0" cy="21.0" r="2.2"/>
<circle cx="378.0" cy="57.0" r="2.1"/>
<circle cx="356.0" cy="114.0" r="2.7"/>
<circle cx="339.0" cy="154.0" r="3.0"/>
<circle cx="312.0" cy="81.0" r="1.5"/>
<circle cx="266.0" cy="67.0" r="1.2"/>
<circle cx="296.0" cy="139.0" r="2.1"/>
<circle cx="307.0" cy="119.0" r="1.6"/>
<circle cx="238.0" cy="35.0" r="2.1"/>
<circle cx="262.0" cy="92.0" r="1.3"/>
<circle cx="345.0" cy="112.0" r="1.1"/>
<circle cx="391.0" cy="24.0" r="2.7"/>
<circle cx="366.0" cy="85.0" r="1.7"/>
<circle cx="309.0" cy="132.0" r="2.3"/>
<circle cx="336.0" cy="22.0" r="2.8"/>
<circle cx="289.0" cy="126.0" r="2.5"/>
<circle cx="236.0" cy="20.0" r="2.6"/>
<circle cx="299.0" cy="152.0" r="3.2"/>
<circle cx="334.0" cy="77.0" r="2.6"/>
<circle cx="391.0" cy="93.0" r="1.0"/>
<circle cx="338.0" cy="95.0" r="1.4"/>
<circle cx="249.0" cy="131.0" r="1.1"/>
<circle cx="293.0" cy="38.0" r="2.6"/>
<circle cx="321.0" cy="105.0" r="3.0"/>
<circle cx="347.0" cy="25.0" r="1.4"/>
<circle cx="322.0" cy="145.0" r="1.6"/>
<path d="M60,160 Q62,120 65,80 Q68,40 72,5" stroke="currentColor" stroke-width="5" fill="currentColor" stroke-linecap="round"/>
<path d="M100,160 Q103,125 106,90 Q109,55 112,15" stroke="currentColor" stroke-width="4" fill="currentColor" stroke-linecap="round"/>
<path d="M140,160 Q142,130 144,100 Q146,70 150,35" stroke="currentColor" stroke-width="3.5" fill="currentColor" stroke-linecap="round"/>
<path d="M65.0,30.0 Q74.8,31.7 83.8,23.2" stroke="currentColor" stroke-width="2.5" fill="currentColor" stroke-linecap="round"/>
<path d="M65.0,30.0 Q56.1,28.4 48.1,36.2" stroke="currentColor" stroke-width="2.5" fill="currentColor" stroke-linecap="round"/>
<path d="M65.0,55.0 Q75.0,54.1 81.4,43.5" stroke="currentColor" stroke-width="2.5" fill="currentColor" stroke-linecap="round"/>
<path d="M65.0,55.0 Q56.0,55.8 50.3,65.3" stroke="currentColor" stroke-width="2.5" fill="currentColor" stroke-linecap="round"/>
<path d="M65.0,80.0 Q74.7,82.6 84.3,74.8" stroke="currentColor" stroke-width="2.5" fill="currentColor" stroke-linecap="round"/>
<path d="M65.0,80.0 Q56.3,77.7 47.6,84.7" stroke="currentColor" stroke-width="2.5" fill="currentColor" stroke-linecap="round"/>
<path d="M68.0,100.0 Q77.8,98.3 83.3,87.1" stroke="currentColor" stroke-width="2.5" fill="currentColor" stroke-linecap="round"/>
<path d="M68.0,100.0 Q59.1,101.6 54.2,111.6" stroke="currentColor" stroke-width="2.5" fill="currentColor" stroke-linecap="round"/>
<path d="M100.0,40.0 Q110.0,40.9 118.1,31.5" stroke="currentColor" stroke-width="2.5" fill="currentColor" stroke-linecap="round"/>
<path d="M100.0,40.0 Q91.0,39.2 83.7,47.6" stroke="currentColor" stroke-width="2.5" fill="currentColor" stroke-linecap="round"/>
<path d="M100.0,65.0 Q109.4,68.4 119.7,61.5" stroke="currentColor" stroke-width="2.5" fill="currentColor" stroke-linecap="round"/>
<path d="M100.0,65.0 Q91.5,61.9 82.3,68.1" stroke="currentColor" stroke-width="2.5" fill="currentColor" stroke-linecap="round"/>
<path d="M100.0,90.0 Q110.0,90.0 117.3,80.0" stroke="currentColor" stroke-width="2.5" fill="currentColor" stroke-linecap="round"/>
<path d="M100.0,90.0 Q91.0,90.0 84.4,99.0" stroke="currentColor" stroke-width="2.5" fill="currentColor" stroke-linecap="round"/>
<path d="M106.0,115.0 Q115.8,116.7 124.8,108.2" stroke="currentColor" stroke-width="2.5" fill="currentColor" stroke-linecap="round"/>
<path d="M106.0,115.0 Q97.1,113.4 89.1,121.2" stroke="currentColor" stroke-width="2.5" fill="currentColor" stroke-linecap="round"/>
<path d="M142.0,50.0 Q151.7,52.6 161.3,44.8" stroke="currentColor" stroke-width="2.5" fill="currentColor" stroke-linecap="round"/>
<path d="M142.0,50.0 Q133.3,47.7 124.6,54.7" stroke="currentColor" stroke-width="2.5" fill="currentColor" stroke-linecap="round"/>
<path d="M144.0,75.0 Q154.0,75.0 161.3,65.0" stroke="currentColor" stroke-width="2.5" fill="currentColor" stroke-linecap="round"/>
<path d="M144.0,75.0 Q135.0,75.0 128.4,84.0" stroke="currentColor" stroke-width="2.5" fill="currentColor" stroke-linecap="round"/>
<path d="M144.0,100.0 Q153.4,103.4 163.7,96.5" stroke="currentColor" stroke-width="2.5" fill="currentColor" stroke-linecap="round"/>
<path d="M144.0,100.0 Q135.5,96.9 126.3,103.1" stroke="currentColor" stroke-width="2.5" fill="currentColor" stroke-linecap="round"/>
<path d="M147.0,120.0 Q157.0,120.9 165.1,111.5" stroke="currentColor" stroke-width="2.5" fill="currentColor" stroke-linecap="round"/>
<path d="M147.0,120.0 Q138.0,119.2 130.7,127.6" stroke="currentColor" stroke-width="2.5" fill="currentColor" stroke-linecap="round"/>
<rect x="69" y="45" width="12" height="32" rx="1" transform="rotate(-15,75,61)"/>
<rect x="69" y="85" width="12" height="32" rx="1" transform="rotate(10,75,101)"/>
<rect x="106" y="55" width="12" height="32" rx="1" transform="rotate(-8,112,71)"/>
<rect x="109" y="100" width="12" height="32" rx="1" transform="rotate(18,115,116)"/>
<rect x="142" y="65" width="12" height="32" rx="1" transform="rotate(-12,148,81)"/>
<rect x="142" y="110" width="12" height="32" rx="1" transform="rotate(5,148,126)"/>

</g>
</svg>
