<svg xmlns="http://www.w3.org/2000/svg" viewBox="0 0 400 160" width="400" height="160">
<g fill="currentColor">
<path d="M85.2,50.5 L89.3,51.5 L93.2,53.0 L96.8,55.1 L100.1,57.7 L103.0,60.7 L105.4,64.1 L107.4,67.8 L108.8,71.7 L109.7,75.8 L110.0,80.0 L109.7,84.2 L108.8,88.3 L107.4,92.2 L105.4,95.9 L103.0,99.3 L100.1,102.3 L96.8,104.9 L93.2,107.0 L89.3,108.5 L85.2,109.5 L80.0,92.0 L80.0,83.0 Z" transform="rotate(-20,80.0,80.0)"/>
<path d="M204.3,70.4 L207.7,71.2 L211.0,72.5 L214.0,74.3 L216.7,76.4 L219.2,78.9 L221.2,81.8 L222.8,84.8 L224.0,88.1 L224.8,91.5 L225.0,95.0 L224.8,98.5 L224.0,101.9 L222.8,105.2 L221.2,108.2 L219.2,111.1 L216.7,113.6 L214.0,115.7 L211.0,117.5 L207.7,118.8 L204.3,119.6 L200.0,105.0 L200.0,97.5 Z" transform="rotate(15,200.0,95.0)"/>
<path d="M314.9,27.4 L318.7,28.4 L322.3,29.8 L325.7,31.8 L328.7,34.2 L331.4,37.0 L333.7,40.2 L335.6,43.6 L336.9,47.3 L337.7,51.1 L338.0,55.0 L337.7,58.9 L336.9,62.7 L335.6,66.4 L333.7,69.8 L331.4,73.0 L328.7,75.8 L325.7,78.2 L322.3,80.2 L318.7,81.6 L314.9,82.6 L310.0,66.2 L310.0,57.8 Z" transform="rotate(-30,310.0,55.0)"/>
<path d="M143.8,28.3 L146.8,29.1 L149.6,30.2 L152.3,31.8 L154.7,33.7 L156.9,35.9 L158.7,38.3 L160.1,41.1 L161.1,43.9 L161.8,46.9 L162.0,50.0 L161.8,53.1 L161.1,56.1 L160.1,58.9 L158.7,61.7 L156.9,64.1 L154.7,66.3 L152.3,68.2 L149.6,69.8 L146.8,70.9 L143.8,71.7 L140.0,58.8 L140.0,52.2 Z" transform="rotate(40,140.0,50.0)"/>
<path d="M260.0,92.8 L269.2,94.2 L237.5,72.0 L262.4,93.8 L247.0,62.5 L256.6,97.6 L260.0,59.0 L253.6,91.4 L273.0,62.5 L247.4,88.4 L282.5,72.0 L260.0,92.8 Z" transform="rotate(-15,260.0,85.0)"/>
<line x1="260.0" y1="92.8" x2="260.0" y2="99.3" stroke="currentColor" stroke-width="2" stroke-linecap="round"/>
<path d="M350.0,106.6 L357.8,107.8 L330.9,89.0 L352.0,107.4 L339.0,80.9 L347.2,110.6 L350.0,78.0 L344.6,105.4 L361.0,80.9 L339.4,102.8 L369.1,89.0 L350.0,106.6 Z" transform="rotate(20,350.0,100.0)"/>
<line x1="350.0" y1="106.6" x2="350.0" y2="112.1" stroke="currentColor" stroke-width="2" stroke-linecap="round"/>
<path d="M170.0,121.0 L177.1,122.1 L152.7,105.0 L171.8,121.8 L160.0,97.7 L167.4,124.7 L170.0,95.0 L165.1,119.9 L180.0,97.7 L160.3,117.6 L187.3,105.0 L170.0,121.0 Z" transform="rotate(-40,170.0,115.0)"/>
<line x1="170.0" y1="121.0" x2="170.0" y2="126.0" stroke="currentColor" stroke-width="2" stroke-linecap="round"/>
<path d="M60.0,125.4 L66.4,126.4 L44.4,111.0 L61.6,126.1 L51.0,104.4 L57.7,128.7 L60.0,102.0 L55.5,124.5 L69.0,104.4 L51.3,122.3 L75.6,111.0 L60.0,125.4 Z" transform="rotate(10,60.0,120.0)"/>
<line x1="60.0" y1="125.4" x2="60.0" y2="129.9" stroke="currentColor" stroke-width="2" stroke-linecap="round"/>
<path d="M373.1,17.3 L375.6,17.9 L377.9,18.8 L380.1,20.1 L382.0,21.6 L383.8,23.4 L385.3,25.5 L386.4,27.7 L387.3,30.0 L387.8,32.5 L388.0,35.0 L387.8,37.5 L387.3,40.0 L386.4,42.3 L385.3,44.5 L383.8,46.6 L382.0,48.4 L380.1,49.9 L377.9,51.2 L375.6,52.1 L373.1,52.7 L370.0,42.2 L370.0,36.8 Z" transform="rotate(55,370.0,35.0)"/>
<path d="M110.0,39.5 L115.3,40.3 L97.0,27.5 L111.4,40.1 L102.5,22.0 L108.1,42.2 L110.0,20.0 L106.3,38.7 L117.5,22.0 L102.8,36.9 L123.0,27.5 L110.0,39.5 Z" transform="rotate(-25,110.0,35.0)"/>
<line x1="110.0" y1="39.5" x2="110.0" y2="43.2" stroke="currentColor" stroke-width="2" stroke-linecap="round"/>

</g>
</svg>
