<svg xmlns="http://www.w3.org/2000/svg" viewBox="0 0 400 160" width="400" height="160">
<g fill="currentColor">
<path d="M80,160 Q82,130 85,100 Q88,70 95,45 Q102,22 115,8" stroke="currentColor" stroke-width="8" fill="currentColor" stroke-linecap="round"/>
<path d="M95,45 Q115,35 138,30 Q158,26 175,28" stroke="currentColor" stroke-width="4.5" fill="currentColor" stroke-linecap="round"/>
<path d="M85,100 Q65,90 48,85 Q35,81 22,85" stroke="currentColor" stroke-width="4" fill="currentColor" stroke-linecap="round"/>
<path d="M90,70 Q75,58 62,55" stroke="currentColor" stroke-width="3" fill="currentColor" stroke-linecap="round"/>
<path d="M115,8 Q125,5 138,8 Q150,12 158,20" stroke="currentColor" stroke-width="3" fill="currentColor" stroke-linecap="round"/>
<path d="M138,30 Q140,18 148,10" stroke="currentColor" stroke-width="2.5" fill="currentColor" stroke-linecap="round"/>
<path d="M175,28 Q185,22 195,18 Q205,15 215,18" stroke="currentColor" stroke-width="2.5" fill="currentColor" stroke-linecap="round"/>
<line x1="255.0" y1="35.0" x2="279.0" y2="35.0" stroke="currentColor" stroke-width="1.5" stroke-linecap="round"/>
<line x1="264.6" y1="35.0" x2="267.0" y2="39.2" stroke="currentColor" stroke-width="1.2" stroke-linecap="round"/>
<line x1="264.6" y1="35.0" x2="267.0" y2="30.8" stroke="currentColor" stroke-width="1.2" stroke-linecap="round"/>
<line x1="271.8" y1="35.0" x2="274.2" y2="39.2" stroke="currentColor" stroke-width="1.2" stroke-linecap="round"/>
<line x1="271.8" y1="35.0" x2="274.2" y2="30.8" stroke="currentColor" stroke-width="1.2" stroke-linecap="round"/>
<line x1="255.0" y1="35.0" x2="267.0" y2="55.8" stroke="currentColor" stroke-width="1.5" stroke-linecap="round"/>
<line x1="259.8" y1="43.3" x2="257.4" y2="47.5" stroke="currentColor" stroke-width="1.2" stroke-linecap="round"/>
<line x1="259.8" y1="43.3" x2="264.6" y2="43.3" stroke="currentColor" stroke-width="1.2" stroke-linecap="round"/>
<line x1="263.4" y1="49.5" x2="261.0" y2="53.7" stroke="currentColor" stroke-width="1.2" stroke-linecap="round"/>
<line x1="263.4" y1="49.5" x2="268.2" y2="49.5" stroke="currentColor" stroke-width="1.2" stroke-linecap="round"/>
<line x1="255.0" y1="35.0" x2="243.0" y2="55.8" stroke="currentColor" stroke-width="1.5" stroke-linecap="round"/>
<line x1="250.2" y1="43.3" x2="245.4" y2="43.3" stroke="currentColor" stroke-width="1.2" stroke-linecap="round"/>
<line x1="250.2" y1="43.3" x2="252.6" y2="47.5" stroke="currentColor" stroke-width="1.2" stroke-linecap="round"/>
<line x1="246.6" y1="49.5" x2="241.8" y2="49.5" stroke="currentColor" stroke-width="1.2" stroke-linecap="round"/>
<line x1="246.6" y1="49.5" x2="249.0" y2="53.7" stroke="currentColor" stroke-width="1.2" stroke-linecap="round"/>
<line x1="255.0" y1="35.0" x2="231.0" y2="35.0" stroke="currentColor" stroke-width="1.5" stroke-linecap="round"/>
<line x1="245.4" y1="35.0" x2="243.0" y2="30.8" stroke="currentColor" stroke-width="1.2" stroke-linecap="round"/>
<line x1="245.4" y1="35.0" x2="243.0" y2="39.2" stroke="currentColor" stroke-width="1.2" stroke-linecap="round"/>
<line x1="238.2" y1="35.0" x2="235.8" y2="30.8" stroke="currentColor" stroke-width="1.2" stroke-linecap="round"/>
<line x1="238.2" y1="35.0" x2="235.8" y2="39.2" stroke="currentColor" stroke-width="1.2" stroke-linecap="round"/>
<line x1="255.0" y1="35.0" x2="243.0" y2="14.2" stroke="currentColor" stroke-width="1.5" stroke-linecap="round"/>
<line x1="250.2" y1="26.7" x2="252.6" y2="22.5" stroke="currentColor" stroke-width="1.2" stroke-linecap="round"/>
<line x1="250.2" y1="26.7" x2="245.4" y2="26.7" stroke="currentColor" stroke-width="1.2" stroke-linecap="round"/>
<line x1="246.6" y1="20.5" x2="249.0" y2="16.3" stroke="currentColor" stroke-width="1.2" stroke-linecap="round"/>
<line x1="246.6" y1="20.5" x2="241.8" y2="20.5" stroke="currentColor" stroke-width="1.2" stroke-linecap="round"/>
<line x1="255.0" y1="35.0" x2="267.0" y2="14.2" stroke="currentColor" stroke-width="1.5" stroke-linecap="round"/>
<line x1="259.8" y1="26.7" x2="264.6" y2="26.7" stroke="currentColor" stroke-width="1.2" stroke-linecap="round"/>
<line x1="259.8" y1="26.7" x2="257.4" y2="22.5" stroke="currentColor" stroke-width="1.2" stroke-linecap="round"/>
<line x1="263.4" y1="20.5" x2="268.2" y2="20.5" stroke="currentColor" stroke-width="1.2" stroke-linecap="round"/>
<line x1="263.4" y1="20.5" x2="261.0" y2="16.3" stroke="currentColor" stroke-width="1.2" stroke-linecap="round"/>
<circle cx="255.0" cy="35.0" r="2.4"/>
<line x1="315.0" y1="65.0" x2="335.0" y2="65.0" stroke="currentColor" stroke-width="1.5" stroke-linecap="round"/>
<line x1="323.0" y1="65.0" x2="325.0" y2="68.5" stroke="currentColor" stroke-width="1.2" stroke-linecap="round"/>
<line x1="323.0" y1="65.0" x2="325.0" y2="61.5" stroke="currentColor" stroke-width="1.2" stroke-linecap="round"/>
<line x1="329.0" y1="65.0" x2="331.0" y2="68.5" stroke="currentColor" stroke-width="1.2" stroke-linecap="round"/>
<line x1="329.0" y1="65.0" x2="331.0" y2="61.5" stroke="currentColor" stroke-width="1.2" stroke-linecap="round"/>
<line x1="315.0" y1="65.0" x2="325.0" y2="82.3" stroke="currentColor" stroke-width="1.5" stroke-linecap="round"/>
<line x1="319.0" y1="71.9" x2="317.0" y2="75.4" stroke="currentColor" stroke-width="1.2" stroke-linecap="round"/>
<line x1="319.0" y1="71.9" x2="323.0" y2="71.9" stroke="currentColor" stroke-width="1.2" stroke-linecap="round"/>
<line x1="322.0" y1="77.1" x2="320.0" y2="80.6" stroke="currentColor" stroke-width="1.2" stroke-linecap="round"/>
<line x1="322.0" y1="77.1" x2="326.0" y2="77.1" stroke="currentColor" stroke-width="1.2" stroke-linecap="round"/>
<line x1="315.0" y1="65.0" x2="305.0" y2="82.3" stroke="currentColor" stroke-width="1.5" stroke-linecap="round"/>
<line x1="311.0" y1="71.9" x2="307.0" y2="71.9" stroke="currentColor" stroke-width="1.2" stroke-linecap="round"/>
<line x1="311.0" y1="71.9" x2="313.0" y2="75.4" stroke="currentColor" stroke-width="1.2" stroke-linecap="round"/>
<line x1="308.0" y1="77.1" x2="304.0" y2="77.1" stroke="currentColor" stroke-width="1.2" stroke-linecap="round"/>
<line x1="308.0" y1="77.1" x2="310.0" y2="80.6" stroke="currentColor" stroke-width="1.2" stroke-linecap="round"/>
<line x1="315.0" y1="65.0" x2="295.0" y2="65.0" stroke="currentColor" stroke-width="1.5" stroke-linecap="round"/>
<line x1="307.0" y1="65.0" x2="305.0" y2="61.5" stroke="currentColor" stroke-width="1.2" stroke-linecap="round"/>
<line x1="307.0" y1="65.0" x2="305.0" y2="68.5" stroke="currentColor" stroke-width="1.2" stroke-linecap="round"/>
<line x1="301.0" y1="65.0" x2="299.0" y2="61.5" stroke="currentColor" stroke-width="1.2" stroke-linecap="round"/>
<line x1="301.0" y1="65.0" x2="299.0" y2="68.5" stroke="currentColor" stroke-width="1.2" stroke-linecap="round"/>
<line x1="315.0" y1="65.0" x2="305.0" y2="47.7" stroke="currentColor" stroke-width="1.5" stroke-linecap="round"/>
<line x1="311.0" y1="58.1" x2="313.0" y2="54.6" stroke="currentColor" stroke-width="1.2" stroke-linecap="round"/>
<line x1="311.0" y1="58.1" x2="307.0" y2="58.1" stroke="currentColor" stroke-width="1.2" stroke-linecap="round"/>
<line x1="308.0" y1="52.9" x2="310.0" y2="49.4" stroke="currentColor" stroke-width="1.2" stroke-linecap="round"/>
<line x1="308.0" y1="52.9" x2="304.0" y2="52.9" stroke="currentColor" stroke-width="1.2" stroke-linecap="round"/>
<line x1="315.0" y1="65.0" x2="325.0" y2="47.7" stroke="currentColor" stroke-width="1.5" stroke-linecap="round"/>
<line x1="319.0" y1="58.1" x2="323.0" y2="58.1" stroke="currentColor" stroke-width="1.2" stroke-linecap="round"/>
<line x1="319.0" y1="58.1" x2="317.0" y2="54.6" stroke="currentColor" stroke-width="1.2" stroke-linecap="round"/>
<line x1="322.0" y1="52.9" x2="326.0" y2="52.9" stroke="currentColor" stroke-width="1.2" stroke-linecap="round"/>
<line x1="322.0" y1="52.9" x2="320.0" y2="49.4" stroke="currentColor" stroke-width="1.2" stroke-linecap="round"/>
<circle cx="315.0" cy="65.0" r="2.0"/>
<line x1="350.0" y1="25.0" x2="366.0" y2="25.0" stroke="currentColor" stroke-width="1.5" stroke-linecap="round"/>
<line x1="356.4" y1="25.0" x2="358.0" y2="27.8" stroke="currentColor" stroke-width="1.2" stroke-linecap="round"/>
<line x1="356.4" y1="25.0" x2="358.0" y2="22.2" stroke="currentColor" stroke-width="1.2" stroke-linecap="round"/>
<line x1="361.2" y1="25.0" x2="362.8" y2="27.8" stroke="currentColor" stroke-width="1.2" stroke-linecap="round"/>
<line x1="361.2" y1="25.0" x2="362.8" y2="22.2" stroke="currentColor" stroke-width="1.2" stroke-linecap="round"/>
<line x1="350.0" y1="25.0" x2="358.0" y2="38.9" stroke="currentColor" stroke-width="1.5" stroke-linecap="round"/>
<line x1="353.2" y1="30.5" x2="351.6" y2="33.3" stroke="currentColor" stroke-width="1.2" stroke-linecap="round"/>
<line x1="353.2" y1="30.5" x2="356.4" y2="30.5" stroke="currentColor" stroke-width="1.2" stroke-linecap="round"/>
<line x1="355.6" y1="34.7" x2="354.0" y2="37.5" stroke="currentColor" stroke-width="1.2" stroke-linecap="round"/>
<line x1="355.6" y1="34.7" x2="358.8" y2="34.7" stroke="currentColor" stroke-width="1.2" stroke-linecap="round"/>
<line x1="350.0" y1="25.0" x2="342.0" y2="38.9" stroke="currentColor" stroke-width="1.5" stroke-linecap="round"/>
<line x1="346.8" y1="30.5" x2="343.6" y2="30.5" stroke="currentColor" stroke-width="1.2" stroke-linecap="round"/>
<line x1="346.8" y1="30.5" x2="348.4" y2="33.3" stroke="currentColor" stroke-width="1.2" stroke-linecap="round"/>
<line x1="344.4" y1="34.7" x2="341.2" y2="34.7" stroke="currentColor" stroke-width="1.2" stroke-linecap="round"/>
<line x1="344.4" y1="34.7" x2="346.0" y2="37.5" stroke="currentColor" stroke-width="1.2" stroke-linecap="round"/>
<line x1="350.0" y1="25.0" x2="334.0" y2="25.0" stroke="currentColor" stroke-width="1.5" stroke-linecap="round"/>
<line x1="343.6" y1="25.0" x2="342.0" y2="22.2" stroke="currentColor" stroke-width="1.2" stroke-linecap="round"/>
<line x1="343.6" y1="25.0" x2="342.0" y2="27.8" stroke="currentColor" stroke-width="1.2" stroke-linecap="round"/>
<line x1="338.8" y1="25.0" x2="337.2" y2="22.2" stroke="currentColor" stroke-width="1.2" stroke-linecap="round"/>
<line x1="338.8" y1="25.0" x2="337.2" y2="27.8" stroke="currentColor" stroke-width="1.2" stroke-linecap="round"/>
<line x1="350.0" y1="25.0" x2="342.0" y2="11.1" stroke="currentColor" stroke-width="1.5" stroke-linecap="round"/>
<line x1="346.8" y1="19.5" x2="348.4" y2="16.7" stroke="currentColor" stroke-width="1.2" stroke-linecap="round"/>
<line x1="346.8" y1="19.5" x2="343.6" y2="19.5" stroke="currentColor" stroke-width="1.2" stroke-linecap="round"/>
<line x1="344.4" y1="15.3" x2="346.0" y2="12.5" stroke="currentColor" stroke-width="1.2" stroke-linecap="round"/>
<line x1="344.4" y1="15.3" x2="341.2" y2="15.3" stroke="currentColor" stroke-width="1.2" stroke-linecap="round"/>
<line x1="350.0" y1="25.0" x2="358.0" y2="11.1" stroke="currentColor" stroke-width="1.5" stroke-linecap="round"/>
<line x1="353.2" y1="19.5" x2="356.4" y2="19.5" stroke="currentColor" stroke-width="1.2" stroke-linecap="round"/>
<line x1="353.2" y1="19.5" x2="351.6" y2="16.7" stroke="currentColor" stroke-width="1.2" stroke-linecap="round"/>
<line x1="355.6" y1="15.3" x2="358.8" y2="15.3" stroke="currentColor" stroke-width="1.2" stroke-linecap="round"/>
<line x1="355.6" y1="15.3" x2="354.0" y2="12.5" stroke="currentColor" stroke-width="1.2" stroke-linecap="round"/>
<circle cx="350.0" cy="25.0" r="1.6"/>
<line x1="280.0" y1="80.0" x2="294.0" y2="80.0" stroke="currentColor" stroke-width="1.5" stroke-linecap="round"/>
<line x1="285.6" y1="80.0" x2="287.0" y2="82.4" stroke="currentColor" stroke-width="1.2" stroke-linecap="round"/>
<line x1="285.6" y1="80.0" x2="287.0" y2="77.6" stroke="currentColor" stroke-width="1.2" stroke-linecap="round"/>
<line x1="289.8" y1="80.0" x2="291.2" y2="82.4" stroke="currentColor" stroke-width="1.2" stroke-linecap="round"/>
<line x1="289.8" y1="80.0" x2="291.2" y2="77.6" stroke="currentColor" stroke-width="1.2" stroke-linecap="round"/>
<line x1="280.0" y1="80.0" x2="287.0" y2="92.1" stroke="currentColor" stroke-width="1.5" stroke-linecap="round"/>
<line x1="282.8" y1="84.8" x2="281.4" y2="87.3" stroke="currentColor" stroke-width="1.2" stroke-linecap="round"/>
<line x1="282.8" y1="84.8" x2="285.6" y2="84.8" stroke="currentColor" stroke-width="1.2" stroke-linecap="round"/>
<line x1="284.9" y1="88.5" x2="283.5" y2="90.9" stroke="currentColor" stroke-width="1.2" stroke-linecap="round"/>
<line x1="284.9" y1="88.5" x2="287.7" y2="88.5" stroke="currentColor" stroke-width="1.2" stroke-linecap="round"/>
<line x1="280.0" y1="80.0" x2="273.0" y2="92.1" stroke="currentColor" stroke-width="1.5" stroke-linecap="round"/>
<line x1="277.2" y1="84.8" x2="274.4" y2="84.8" stroke="currentColor" stroke-width="1.2" stroke-linecap="round"/>
<line x1="277.2" y1="84.8" x2="278.6" y2="87.3" stroke="currentColor" stroke-width="1.2" stroke-linecap="round"/>
<line x1="275.1" y1="88.5" x2="272.3" y2="88.5" stroke="currentColor" stroke-width="1.2" stroke-linecap="round"/>
<line x1="275.1" y1="88.5" x2="276.5" y2="90.9" stroke="currentColor" stroke-width="1.2" stroke-linecap="round"/>
<line x1="280.0" y1="80.0" x2="266.0" y2="80.0" stroke="currentColor" stroke-width="1.5" stroke-linecap="round"/>
<line x1="274.4" y1="80.0" x2="273.0" y2="77.6" stroke="currentColor" stroke-width="1.2" stroke-linecap="round"/>
<line x1="274.4" y1="80.0" x2="273.0" y2="82.4" stroke="currentColor" stroke-width="1.2" stroke-linecap="round"/>
<line x1="270.2" y1="80.0" x2="268.8" y2="77.6" stroke="currentColor" stroke-width="1.2" stroke-linecap="round"/>
<line x1="270.2" y1="80.0" x2="268.8" y2="82.4" stroke="currentColor" stroke-width="1.2" stroke-linecap="round"/>
<line x1="280.0" y1="80.0" x2="273.0" y2="67.9" stroke="currentColor" stroke-width="1.5" stroke-linecap="round"/>
<line x1="277.2" y1="75.2" x2="278.6" y2="72.7" stroke="currentColor" stroke-width="1.2" stroke-linecap="round"/>
<line x1="277.2" y1="75.2" x2="274.4" y2="75.2" stroke="currentColor" stroke-width="1.2" stroke-linecap="round"/>
<line x1="275.1" y1="71.5" x2="276.5" y2="69.1" stroke="currentColor" stroke-width="1.2" stroke-linecap="round"/>
<line x1="275.1" y1="71.5" x2="272.3" y2="71.5" stroke="currentColor" stroke-width="1.2" stroke-linecap="round"/>
<line x1="280.0" y1="80.0" x2="287.0" y2="67.9" stroke="currentColor" stroke-width="1.5" stroke-linecap="round"/>
<line x1="282.8" y1="75.2" x2="285.6" y2="75.2" stroke="currentColor" stroke-width="1.2" stroke-linecap="round"/>
<line x1="282.8" y1="75.2" x2="281.4" y2="72.7" stroke="currentColor" stroke-width="1.2" stroke-linecap="round"/>
<line x1="284.9" y1="71.5" x2="287.7" y2="71.5" stroke="currentColor" stroke-width="1.2" stroke-linecap="round"/>
<line x1="284.9" y1="71.5" x2="283.5" y2="69.1" stroke="currentColor" stroke-width="1.2" stroke-linecap="round"/>
<circle cx="280.0" cy="80.0" r="1.4"/>
<line x1="370.0" y1="75.0" x2="382.0" y2="75.0" stroke="currentColor" stroke-width="1.5" stroke-linecap="round"/>
<line x1="374.8" y1="75.0" x2="376.0" y2="77.1" stroke="currentColor" stroke-width="1.2" stroke-linecap="round"/>
<line x1="374.8" y1="75.0" x2="376.0" y2="72.9" stroke="currentColor" stroke-width="1.2" stroke-linecap="round"/>
<line x1="378.4" y1="75.0" x2="379.6" y2="77.1" stroke="currentColor" stroke-width="1.2" stroke-linecap="round"/>
<line x1="378.4" y1="75.0" x2="379.6" y2="72.9" stroke="currentColor" stroke-width="1.2" stroke-linecap="round"/>
<line x1="370.0" y1="75.0" x2="376.0" y2="85.4" stroke="currentColor" stroke-width="1.5" stroke-linecap="round"/>
<line x1="372.4" y1="79.2" x2="371.2" y2="81.2" stroke="currentColor" stroke-width="1.2" stroke-linecap="round"/>
<line x1="372.4" y1="79.2" x2="374.8" y2="79.2" stroke="currentColor" stroke-width="1.2" stroke-linecap="round"/>
<line x1="374.2" y1="82.3" x2="373.0" y2="84.4" stroke="currentColor" stroke-width="1.2" stroke-linecap="round"/>
<line x1="374.2" y1="82.3" x2="376.6" y2="82.3" stroke="currentColor" stroke-width="1.2" stroke-linecap="round"/>
<line x1="370.0" y1="75.0" x2="364.0" y2="85.4" stroke="currentColor" stroke-width="1.5" stroke-linecap="round"/>
<line x1="367.6" y1="79.2" x2="365.2" y2="79.2" stroke="currentColor" stroke-width="1.2" stroke-linecap="round"/>
<line x1="367.6" y1="79.2" x2="368.8" y2="81.2" stroke="currentColor" stroke-width="1.2" stroke-linecap="round"/>
<line x1="365.8" y1="82.3" x2="363.4" y2="82.3" stroke="currentColor" stroke-width="1.2" stroke-linecap="round"/>
<line x1="365.8" y1="82.3" x2="367.0" y2="84.4" stroke="currentColor" stroke-width="1.2" stroke-linecap="round"/>
<line x1="370.0" y1="75.0" x2="358.0" y2="75.0" stroke="currentColor" stroke-width="1.5" stroke-linecap="round"/>
<line x1="365.2" y1="75.0" x2="364.0" y2="72.9" stroke="currentColor" stroke-width="1.2" stroke-linecap="round"/>
<line x1="365.2" y1="75.0" x2="364.0" y2="77.1" stroke="currentColor" stroke-width="1.2" stroke-linecap="round"/>
<line x1="361.6" y1="75.0" x2="360.4" y2="72.9" stroke="currentColor" stroke-width="1.2" stroke-linecap="round"/>
<line x1="361.6" y1="75.0" x2="360.4" y2="77.1" stroke="currentColor" stroke-width="1.2" stroke-linecap="round"/>
<line x1="370.0" y1="75.0" x2="364.0" y2="64.6" stroke="currentColor" stroke-width="1.5" stroke-linecap="round"/>
<line x1="367.6" y1="70.8" x2="368.8" y2="68.8" stroke="currentColor" stroke-width="1.2" stroke-linecap="round"/>
<line x1="367.6" y1="70.8" x2="365.2" y2="70.8" stroke="currentColor" stroke-width="1.2" stroke-linecap="round"/>
<line x1="365.8" y1="67.7" x2="367.0" y2="65.6" stroke="currentColor" stroke-width="1.2" stroke-linecap="round"/>
<line x1="365.8" y1="67.7" x2="363.4" y2="67.7" stroke="currentColor" stroke-width="1.2" stroke-linecap="round"/>
<line x1="370.0" y1="75.0" x2="376.0" y2="64.6" stroke="currentColor" stroke-width="1.5" stroke-linecap="round"/>
<line x1="372.4" y1="70.8" x2="374.8" y2="70.8" stroke="currentColor" stroke-width="1.2" stroke-linecap="round"/>
<line x1="372.4" y1="70.8" x2="371.2" y2="68.8" stroke="currentColor" stroke-width="1.2" stroke-linecap="round"/>
<line x1="374.2" y1="67.7" x2="376.6" y2="67.7" stroke="currentColor" stroke-width="1.2" stroke-linecap="round"/>
<line x1="374.2" y1="67.7" x2="373.0" y2="65.6" stroke="currentColor" stroke-width="1.2" stroke-linecap="round"/>
<circle cx="370.0" cy="75.0" r="1.2"/>
<line x1="230.0" y1="90.0" x2="240.0" y2="90.0" stroke="currentColor" stroke-width="1.5" stroke-linecap="round"/>
<line x1="234.0" y1="90.0" x2="235.0" y2="91.7" stroke="currentColor" stroke-width="1.2" stroke-linecap="round"/>
<line x1="234.0" y1="90.0" x2="235.0" y2="88.3" stroke="currentColor" stroke-width="1.2" stroke-linecap="round"/>
<line x1="237.0" y1="90.0" x2="238.0" y2="91.7" stroke="currentColor" stroke-width="1.2" stroke-linecap="round"/>
<line x1="237.0" y1="90.0" x2="238.0" y2="88.3" stroke="currentColor" stroke-width="1.2" stroke-linecap="round"/>
<line x1="230.0" y1="90.0" x2="235.0" y2="98.7" stroke="currentColor" stroke-width="1.5" stroke-linecap="round"/>
<line x1="232.0" y1="93.5" x2="231.0" y2="95.2" stroke="currentColor" stroke-width="1.2" stroke-linecap="round"/>
<line x1="232.0" y1="93.5" x2="234.0" y2="93.5" stroke="currentColor" stroke-width="1.2" stroke-linecap="round"/>
<line x1="233.5" y1="96.1" x2="232.5" y2="97.8" stroke="currentColor" stroke-width="1.2" stroke-linecap="round"/>
<line x1="233.5" y1="96.1" x2="235.5" y2="96.1" stroke="currentColor" stroke-width="1.2" stroke-linecap="round"/>
<line x1="230.0" y1="90.0" x2="225.0" y2="98.7" stroke="currentColor" stroke-width="1.5" stroke-linecap="round"/>
<line x1="228.0" y1="93.5" x2="226.0" y2="93.5" stroke="currentColor" stroke-width="1.2" stroke-linecap="round"/>
<line x1="228.0" y1="93.5" x2="229.0" y2="95.2" stroke="currentColor" stroke-width="1.2" stroke-linecap="round"/>
<line x1="226.5" y1="96.1" x2="224.5" y2="96.1" stroke="currentColor" stroke-width="1.2" stroke-linecap="round"/>
<line x1="226.5" y1="96.1" x2="227.5" y2="97.8" stroke="currentColor" stroke-width="1.2" stroke-linecap="round"/>
<line x1="230.0" y1="90.0" x2="220.0" y2="90.0" stroke="currentColor" stroke-width="1.5" stroke-linecap="round"/>
<line x1="226.0" y1="90.0" x2="225.0" y2="88.3" stroke="currentColor" stroke-width="1.2" stroke-linecap="round"/>
<line x1="226.0" y1="90.0" x2="225.0" y2="91.7" stroke="currentColor" stroke-width="1.2" stroke-linecap="round"/>
<line x1="223.0" y1="90.0" x2="222.0" y2="88.3" stroke="currentColor" stroke-width="1.2" stroke-linecap="round"/>
<line x1="223.0" y1="90.0" x2="222.0" y2="91.7" stroke="currentColor" stroke-width="1.2" stroke-linecap="round"/>
<line x1="230.0" y1="90.0" x2="225.0" y2="81.3" stroke="currentColor" stroke-width="1.5" stroke-linecap="round"/>
<line x1="228.0" y1="86.5" x2="229.0" y2="84.8" stroke="currentColor" stroke-width="1.2" stroke-linecap="round"/>
<line x1="228.0" y1="86.5" x2="226.0" y2="86.5" stroke="currentColor" stroke-width="1.2" stroke-linecap="round"/>
<line x1="226.5" y1="83.9" x2="227.5" y2="82.2" stroke="currentColor" stroke-width="1.2" stroke-linecap="round"/>
<line x1="226.5" y1="83.9" x2="224.5" y2="83.9" stroke="currentColor" stroke-width="1.2" stroke-linecap="round"/>
<line x1="230.0" y1="90.0" x2="235.0" y2="81.3" stroke="currentColor" stroke-width="1.5" stroke-linecap="round"/>
<line x1="232.0" y1="86.5" x2="234.0" y2="86.5" stroke="currentColor" stroke-width="1.2" stroke-linecap="round"/>
<line x1="232.0" y1="86.5" x2="231.0" y2="84.8" stroke="currentColor" stroke-width="1.2" stroke-linecap="round"/>
<line x1="233.5" y1="83.9" x2="235.5" y2="83.9" stroke="currentColor" stroke-width="1.2" stroke-linecap="round"/>
<line x1="233.5" y1="83.9" x2="232.5" y2="82.2" stroke="currentColor" stroke-width="1.2" stroke-linecap="round"/>
<circle cx="230.0" cy="90.0" r="1.0"/>
<line x1="340.0" y1="105.0" x2="350.0" y2="105.0" stroke="currentColor" stroke-width="1.5" stroke-linecap="round"/>
<line x1="344.0" y1="105.0" x2="345.0" y2="106.7" stroke="currentColor" stroke-width="1.2" stroke-linecap="round"/>
<line x1="344.0" y1="105.0" x2="345.0" y2="103.3" stroke="currentColor" stroke-width="1.2" stroke-linecap="round"/>
<line x1="347.0" y1="105.0" x2="348.0" y2="106.7" stroke="currentColor" stroke-width="1.2" stroke-linecap="round"/>
<line x1="347.0" y1="105.0" x2="348.0" y2="103.3" stroke="currentColor" stroke-width="1.2" stroke-linecap="round"/>
<line x1="340.0" y1="105.0" x2="345.0" y2="113.7" stroke="currentColor" stroke-width="1.5" stroke-linecap="round"/>
<line x1="342.0" y1="108.5" x2="341.0" y2="110.2" stroke="currentColor" stroke-width="1.2" stroke-linecap="round"/>
<line x1="342.0" y1="108.5" x2="344.0" y2="108.5" stroke="currentColor" stroke-width="1.2" stroke-linecap="round"/>
<line x1="343.5" y1="111.1" x2="342.5" y2="112.8" stroke="currentColor" stroke-width="1.2" stroke-linecap="round"/>
<line x1="343.5" y1="111.1" x2="345.5" y2="111.1" stroke="currentColor" stroke-width="1.2" stroke-linecap="round"/>
<line x1="340.0" y1="105.0" x2="335.0" y2="113.7" stroke="currentColor" stroke-width="1.5" stroke-linecap="round"/>
<line x1="338.0" y1="108.5" x2="336.0" y2="108.5" stroke="currentColor" stroke-width="1.2" stroke-linecap="round"/>
<line x1="338.0" y1="108.5" x2="339.0" y2="110.2" stroke="currentColor" stroke-width="1.2" stroke-linecap="round"/>
<line x1="336.5" y1="111.1" x2="334.5" y2="111.1" stroke="currentColor" stroke-width="1.2" stroke-linecap="round"/>
<line x1="336.5" y1="111.1" x2="337.5" y2="112.8" stroke="currentColor" stroke-width="1.2" stroke-linecap="round"/>
<line x1="340.0" y1="105.0" x2="330.0" y2="105.0" stroke="currentColor" stroke-width="1.5" stroke-linecap="round"/>
<line x1="336.0" y1="105.0" x2="335.0" y2="103.3" stroke="currentColor" stroke-width="1.2" stroke-linecap="round"/>
<line x1="336.0" y1="105.0" x2="335.0" y2="106.7" stroke="currentColor" stroke-width="1.2" stroke-linecap="round"/>
<line x1="333.0" y1="105.0" x2="332.0" y2="103.3" stroke="currentColor" stroke-width="1.2" stroke-linecap="round"/>
<line x1="333.0" y1="105.0" x2="332.0" y2="106.7" stroke="currentColor" stroke-width="1.2" stroke-linecap="round"/>
<line x1="340.0" y1="105.0" x2="335.0" y2="96.3" stroke="currentColor" stroke-width="1.5" stroke-linecap="round"/>
<line x1="338.0" y1="101.5" x2="339.0" y2="99.8" stroke="currentColor" stroke-width="1.2" stroke-linecap="round"/>
<line x1="338.0" y1="101.5" x2="336.0" y2="101.5" stroke="currentColor" stroke-width="1.2" stroke-linecap="round"/>
<line x1="336.5" y1="98.9" x2="337.5" y2="97.2" stroke="currentColor" stroke-width="1.2" stroke-linecap="round"/>
<line x1="336.5" y1="98.9" x2="334.5" y2="98.9" stroke="currentColor" stroke-width="1.2" stroke-linecap="round"/>
<line x1="340.0" y1="105.0" x2="345.0" y2="96.3" stroke="currentColor" stroke-width="1.5" stroke-linecap="round"/>
<line x1="342.0" y1="101.5" x2="344.0" y2="101.5" stroke="currentColor" stroke-width="1.2" stroke-linecap="round"/>
<line x1="342.0" y1="101.5" x2="341.0" y2="99.8" stroke="currentColor" stroke-width="1.2" stroke-linecap="round"/>
<line x1="343.5" y1="98.9" x2="345.5" y2="98.9" stroke="currentColor" stroke-width="1.2" stroke-linecap="round"/>
<line x1="343.5" y1="98.9" x2="342.5" y2="97.2" stroke="currentColor" stroke-width="1.2" stroke-linecap="round"/>
<circle cx="340.0" cy="105.0" r="1.0"/>

</g>
</svg>
