<svg xmlns="http://www.w3.org/2000/svg" viewBox="0 0 400 160">
<g fill="currentColor">
<path d="M85,52 Q95,38 110,30 Q125,22 142,20 Q158,18 172,22 Q186,26 195,36 Q205,46 208,55 L85,55 Z"/>
<path d="M85,55 Q82,85 83,105 Q84,125 88,138 Q95,152 115,158 Q130,162 142,162 Q158,162 170,158 Q188,152 195,138 Q200,125 200,105 Q200,85 197,55 Z"/>
<path d="M230,50 Q245,55 255,62" stroke="currentColor" stroke-width="6" fill="none" stroke-linecap="round"/>
<path d="M255,62 Q270,75 272,92 Q274,108 265,118" stroke="currentColor" stroke-width="6" fill="none" stroke-linecap="round"/>
<path d="M252,55 Q256,48 262,44 Q268,40 274,42" stroke="currentColor" stroke-width="4" fill="none" stroke-linecap="round"/>
<rect x="85.0" y="78.0" width="113.0" height="5.0" rx="1.0"/>
<rect x="85.0" y="115.0" width="113.0" height="5.0" rx="1.0"/>
<circle cx="95.0" cy="65.0" r="4.0"/>
<circle cx="121.0" cy="65.0" r="4.0"/>
<circle cx="147.0" cy="65.0" r="4.0"/>
<circle cx="173.0" cy="65.0" r="4.0"/>
<circle cx="95.0" cy="83.0" r="4.0"/>
<circle cx="121.0" cy="83.0" r="4.0"/>
<circle cx="147.0" cy="83.0" r="4.0"/>
<circle cx="173.0" cy="83.0" r="4.0"/>
<circle cx="361.0" cy="78.0" r="4.0"/>
<circle cx="329.0" cy="46.0" r="3.1"/>
<circle cx="335.0" cy="133.0" r="2.8"/>
<circle cx="357.0" cy="68.0" r="3.7"/>
<circle cx="277.0" cy="122.0" r="3.1"/>
<circle cx="326.0" cy="63.0" r="2.2"/>
<circle cx="291.0" cy="29.0" r="3.5"/>
<circle cx="326.0" cy="113.0" r="4.4"/>
<circle cx="262.0" cy="14.0" r="4.8"/>
<circle cx="370.0" cy="67.0" r="2.3"/>
<circle cx="348.0" cy="123.0" r="2.3"/>
<circle cx="348.0" cy="44.0" r="3.6"/>
<circle cx="382.0" cy="51.0" r="4.9"/>
<circle cx="253.0" cy="152.0" r="2.5"/>
<circle cx="261.0" cy="112.0" r="3.8"/>
<circle cx="392.0" cy="130.0" r="3.4"/>
<circle cx="338.0" cy="148.0" r="2.1"/>
<circle cx="261.0" cy="59.0" r="4.9"/>
<circle cx="306.0" cy="101.0" r="4.8"/>
<circle cx="338.0" cy="89.0" r="2.3"/>
<ellipse cx="340" cy="49" rx="9.8" ry="7.0" transform="rotate(-15,340,49)"/>
<rect x="347.0" y="35.0" width="3.1" height="14.0"/>
<ellipse cx="360" cy="66" rx="7.7" ry="5.5" transform="rotate(-15,360,66)"/>
<rect x="365.5" y="55.0" width="2.4" height="11.0"/>
<ellipse cx="320" cy="70" rx="7.0" ry="5.0" transform="rotate(-15,320,70)"/>
<rect x="325.0" y="60.0" width="2.2" height="10.0"/>

</g>
</svg>
